<svg width="188" height="52" viewBox="0 0 188 52" fill="none" xmlns="http://www.w3.org/2000/svg">
<path d="M35.8803 35.8692C33.2637 38.4842 29.7158 39.9532 26.0165 39.9532C22.3172 39.9532 18.7693 38.4842 16.1528 35.8692L4.84277 24.6025L9.75027 19.6517C10.3123 19.0946 11.0715 18.7821 11.8628 18.7821C12.654 18.7821 13.4133 19.0946 13.9753 19.6517L23.1836 28.8167C23.6721 29.3272 24.2877 29.6983 24.9673 29.8918C25.6468 30.0853 26.3656 30.0943 27.0497 29.9177C27.7339 29.7412 28.3586 29.3855 28.8596 28.8873C29.3606 28.3891 29.7198 27.7664 29.9003 27.0833L37.2453 34.4175C36.8229 34.9311 36.3669 35.416 35.8803 35.8692ZM42.2503 32.3483C41.6883 32.9054 40.929 33.2179 40.1378 33.2179C39.3465 33.2179 38.5873 32.9054 38.0253 32.3483L28.8278 23.1833C28.3356 22.6731 27.716 22.3037 27.033 22.1134C26.3501 21.9232 25.6287 21.919 24.9436 22.1013C24.2586 22.2837 23.6347 22.6459 23.1366 23.1504C22.6386 23.6549 22.2845 24.2834 22.1111 24.9708L14.7661 17.6475C15.1669 17.1149 15.6011 16.6084 16.0661 16.1308C18.6826 13.5158 22.2305 12.0467 25.9299 12.0467C29.6292 12.0467 33.1771 13.5158 35.7936 16.1308L47.0711 27.3975L42.2503 32.3483Z" fill="white" stroke="white" stroke-width="0.5" stroke-linecap="round" stroke-linejoin="round"/>
<path d="M74.4 33.76C70.832 34.08 67.872 34.24 65.52 34.24C63.952 34.24 62.8 33.872 62.064 33.136C61.328 32.4 60.96 31.248 60.96 29.68V22C60.96 20.32 61.336 19.104 62.088 18.352C62.856 17.584 64.08 17.2 65.76 17.2H74.4V20.56H66.72C65.76 20.56 65.28 21.04 65.28 22V29.68C65.28 30.048 65.384 30.344 65.592 30.568C65.816 30.776 66.096 30.88 66.432 30.88C66.768 30.88 67.136 30.88 67.536 30.88C67.936 30.864 68.352 30.848 68.784 30.832C69.216 30.816 69.648 30.8 70.08 30.784C70.528 30.768 71.096 30.736 71.784 30.688C72.488 30.64 73.36 30.584 74.4 30.52V33.76ZM84.2428 34H75.6028V30.64H77.7628V20.56H75.6028V17.2H84.2428V20.56H82.0828V30.64H84.2428V34ZM94.5609 34H90.2409V20.56H85.2009V17.2H99.6009V20.56H94.5609V34ZM99.3637 17.2H103.924L107.884 25.36L111.844 17.2H116.404L110.044 29.56V34H105.724V29.56L99.3637 17.2ZM116.811 30.52C121.195 30.76 124.163 30.88 125.715 30.88C126.083 30.88 126.371 30.776 126.579 30.568C126.803 30.344 126.915 30.048 126.915 29.68V27.52H121.395C119.715 27.52 118.491 27.144 117.723 26.392C116.971 25.624 116.595 24.4 116.595 22.72V22C116.595 20.32 116.971 19.104 117.723 18.352C118.491 17.584 119.715 17.2 121.395 17.2H129.819V20.56H122.355C121.395 20.56 120.915 21.04 120.915 22V22.48C120.915 23.44 121.395 23.92 122.355 23.92H126.675C128.243 23.92 129.395 24.288 130.131 25.024C130.867 25.76 131.235 26.912 131.235 28.48V29.68C131.235 31.248 130.867 32.4 130.131 33.136C129.395 33.872 128.243 34.24 126.675 34.24C125.859 34.24 124.995 34.224 124.083 34.192L121.875 34.096C120.243 34.016 118.555 33.904 116.811 33.76V30.52ZM144.907 17.2L147.787 28L150.307 17.2H154.987L150.427 34H145.867L142.987 23.56L140.107 34H135.547L130.987 17.2H135.667L138.187 28L141.067 17.2H144.907ZM158.003 34H153.322L159.683 17.2H164.483L170.843 34H166.163L165.083 31H159.083L158.003 34ZM160.163 27.88H164.003L162.083 22.24L160.163 27.88ZM172.042 17.2H182.122C183.802 17.2 185.018 17.584 185.77 18.352C186.538 19.104 186.922 20.32 186.922 22V24.4C186.922 26.08 186.538 27.304 185.77 28.072C185.018 28.824 183.802 29.2 182.122 29.2H176.362V34H172.042V17.2ZM182.602 22C182.602 21.04 182.122 20.56 181.162 20.56H176.362V25.84H181.162C182.122 25.84 182.602 25.36 182.602 24.4V22Z" fill="white"/>
</svg>
