<svg width="157" height="31" viewBox="0 0 157 31" fill="none" xmlns="http://www.w3.org/2000/svg">
<path d="M35.4338 20.7143L33.9428 19.6388C33.7803 19.5234 33.5789 19.4766 33.3822 19.5086C33.1855 19.5407 33.0093 19.6489 32.8918 19.8099L30.9853 22.4742C30.185 23.5835 28.9821 24.3352 27.6342 24.5682C26.2864 24.8012 24.9009 24.497 23.7747 23.7208C23.2161 23.3286 22.7408 22.8295 22.3765 22.2524C22.0122 21.6752 21.7661 21.0315 21.6524 20.3585C21.5387 19.6856 21.5597 18.9967 21.7143 18.3319C21.8688 17.6671 22.1537 17.0396 22.5525 16.4857C23.2063 15.5792 23.6749 14.5526 23.9317 13.4648C24.1884 12.377 24.2283 11.2492 24.049 10.146C23.8696 9.04276 23.4746 7.9857 22.8865 7.03522C22.2984 6.08473 21.5288 5.25947 20.6216 4.60661C19.715 3.95289 18.6884 3.48425 17.6006 3.22749C16.5128 2.97072 15.3851 2.93087 14.2818 3.1102C13.1786 3.28953 12.1215 3.68453 11.171 4.27262C10.2206 4.86071 9.3953 5.63036 8.74244 6.53758L6.78703 9.22627C6.67158 9.38875 6.62479 9.59018 6.65682 9.78691C6.68885 9.98365 6.7971 10.1598 6.95813 10.2773L8.44913 11.3528C8.61161 11.4682 8.81304 11.515 9.00977 11.483C9.2065 11.451 9.38269 11.3427 9.50016 11.1817L11.4067 8.54188C11.7983 7.98818 12.2951 7.51703 12.8688 7.15534C13.4425 6.79364 14.0818 6.54849 14.7502 6.43387C15.4187 6.31925 16.1031 6.33741 16.7645 6.48731C17.4259 6.63721 18.0514 6.91592 18.6051 7.30752C19.1588 7.69912 19.6299 8.19595 19.9916 8.76964C20.3533 9.34332 20.5984 9.98263 20.7131 10.6511C20.8277 11.3195 20.8095 12.004 20.6596 12.6654C20.5097 13.3268 20.231 13.9522 19.8394 14.5059C19.1857 15.4125 18.7171 16.439 18.4603 17.5268C18.2035 18.6147 18.1637 19.7424 18.343 20.8456C18.5223 21.9489 18.9173 23.0059 19.5054 23.9564C20.0935 24.9069 20.8632 25.7322 21.7704 26.385C22.6755 27.04 23.7008 27.5102 24.7877 27.7689C25.8746 28.0276 27.0018 28.0696 28.1049 27.8925C29.208 27.7155 30.2655 27.3229 31.2168 26.7371C32.1682 26.1513 32.9948 25.3838 33.6495 24.4785L35.6049 21.7654C35.7204 21.6029 35.7672 21.4015 35.7351 21.2047C35.7031 21.008 35.5949 20.8318 35.4338 20.7143Z" fill="#2ABDB5" stroke="#2ABDB5" stroke-miterlimit="10"/>
<path d="M37.4625 4.63093C35.748 3.38971 33.6314 2.83442 31.5283 3.07411C29.4253 3.31381 27.4879 4.33119 26.0967 5.92639C26.7378 7.14036 27.1676 8.45458 27.3677 9.81277L28.2965 8.49287C29.1325 7.4694 30.328 6.80401 31.6383 6.63279C32.9487 6.46157 34.275 6.79746 35.3459 7.57176C36.4168 8.34606 37.1514 9.50025 37.3994 10.7983C37.6475 12.0963 37.3903 13.44 36.6804 14.5546L34.7494 17.2433C34.6339 17.4058 34.5872 17.6073 34.6192 17.804C34.6512 18.0007 34.7595 18.1769 34.9205 18.2944L36.4115 19.3699C36.574 19.4853 36.7754 19.5321 36.9721 19.5001C37.1689 19.468 37.345 19.3598 37.4625 19.1988L39.3935 16.5101C40.0472 15.6035 40.5158 14.5769 40.7726 13.4891C41.0294 12.4013 41.0692 11.2735 40.8899 10.1703C40.7106 9.06709 40.3156 8.01002 39.7275 7.05954C39.1394 6.10906 38.3697 5.28379 37.4625 4.63093Z" fill="#2ABDB5" stroke="#2ABDB5" stroke-miterlimit="10"/>
<path d="M14.0952 22.4985C13.2592 23.5219 12.0637 24.1873 10.7534 24.3586C9.44301 24.5298 8.11674 24.1939 7.04584 23.4196C5.97493 22.6453 5.24032 21.4911 4.99226 20.1931C4.7442 18.8951 5.00143 17.5513 5.71135 16.4367L7.64231 13.748C7.75777 13.5855 7.80455 13.3841 7.77252 13.1874C7.7405 12.9906 7.63224 12.8145 7.47122 12.697L5.98021 11.6215C5.81773 11.506 5.61631 11.4593 5.41957 11.4913C5.22284 11.5233 5.04665 11.6316 4.92918 11.7926L2.99821 14.4813C2.34449 15.3879 1.87585 16.4144 1.61909 17.5023C1.36232 18.5901 1.32247 19.7178 1.5018 20.821C1.68113 21.9243 2.07613 22.9813 2.66422 23.9318C3.25232 24.8823 4.02197 25.7076 4.92918 26.3604C6.64369 27.6016 8.76034 28.1569 10.8634 27.9172C12.9664 27.6775 14.9038 26.6602 16.295 25.065C15.6539 23.851 15.2241 22.5368 15.024 21.1786L14.0952 22.4985Z" fill="#2ABDB5" stroke="#2ABDB5" stroke-miterlimit="10"/>
<path d="M61.8061 4.18182V18H58.9723L53.4734 10.0249H53.3857V18H50.0458V4.18182H52.9201L58.3583 12.1435H58.473V4.18182H61.8061ZM72.2659 4.18182H75.599V13.0948C75.599 14.1249 75.3538 15.0223 74.8635 15.7869C74.3733 16.5471 73.6895 17.1364 72.8124 17.5547C71.9353 17.9685 70.9165 18.1754 69.7559 18.1754C68.5819 18.1754 67.5564 17.9685 66.6792 17.5547C65.8021 17.1364 65.1206 16.5471 64.6349 15.7869C64.1491 15.0223 63.9062 14.1249 63.9062 13.0948V4.18182H67.246V12.8047C67.246 13.2815 67.3495 13.7066 67.5564 14.0799C67.7678 14.4532 68.0624 14.7456 68.4403 14.957C68.8181 15.1684 69.2567 15.2741 69.7559 15.2741C70.2552 15.2741 70.6916 15.1684 71.0649 14.957C71.4427 14.7456 71.7374 14.4532 71.9488 14.0799C72.1602 13.7066 72.2659 13.2815 72.2659 12.8047V4.18182ZM85.1614 8.32457C85.1164 7.82978 84.9163 7.44519 84.5609 7.17081C84.21 6.89193 83.7085 6.75249 83.0563 6.75249C82.6245 6.75249 82.2646 6.80871 81.9767 6.92116C81.6889 7.03362 81.473 7.1888 81.329 7.38672C81.1851 7.58014 81.1109 7.80279 81.1064 8.05469C81.0974 8.2616 81.1378 8.44377 81.2278 8.60121C81.3223 8.75864 81.4572 8.89808 81.6326 9.01953C81.8126 9.13648 82.0285 9.23994 82.2804 9.3299C82.5323 9.41986 82.8156 9.49858 83.1305 9.56605L84.318 9.83594C85.0017 9.98438 85.6045 10.1823 86.1262 10.4297C86.6525 10.6771 87.0933 10.9717 87.4487 11.3136C87.8085 11.6554 88.0807 12.049 88.2651 12.4943C88.4495 12.9396 88.544 13.4389 88.5485 13.9922C88.544 14.8648 88.3236 15.6138 87.8873 16.239C87.4509 16.8642 86.8234 17.3433 86.0048 17.6761C85.1906 18.009 84.2078 18.1754 83.0563 18.1754C81.9003 18.1754 80.8927 18.0022 80.0336 17.6559C79.1744 17.3095 78.5065 16.7833 78.0297 16.0771C77.5529 15.3709 77.3077 14.478 77.2942 13.3984H80.4924C80.5194 13.8438 80.6386 14.2148 80.85 14.5117C81.0614 14.8086 81.3515 15.0335 81.7203 15.1864C82.0937 15.3394 82.5255 15.4158 83.0158 15.4158C83.4656 15.4158 83.848 15.3551 84.1628 15.2337C84.4822 15.1122 84.7273 14.9435 84.8983 14.7276C85.0692 14.5117 85.1569 14.2643 85.1614 13.9854C85.1569 13.7245 85.0759 13.5019 84.9185 13.3175C84.7611 13.1286 84.5182 12.9666 84.1898 12.8317C83.8659 12.6922 83.4521 12.564 82.9483 12.4471L81.5044 12.1097C80.3079 11.8353 79.3656 11.3923 78.6774 10.7805C77.9892 10.1643 77.6473 9.33215 77.6518 8.28409C77.6473 7.42945 77.8767 6.68052 78.34 6.03729C78.8033 5.39406 79.4443 4.89252 80.263 4.53267C81.0816 4.17282 82.015 3.9929 83.063 3.9929C84.1336 3.9929 85.0624 4.17507 85.8496 4.53942C86.6413 4.89927 87.2553 5.4053 87.6916 6.05753C88.1279 6.70975 88.3506 7.46543 88.3596 8.32457H85.1614ZM92.7975 18H89.208L93.8703 4.18182H98.3167L102.979 18H99.3895L96.1441 7.66335H96.0361L92.7975 18ZM92.3184 12.5618H99.8213V15.0987H92.3184V12.5618Z" fill="#2ABDB5"/>
<path d="M104.015 6.89418V4.18182H115.694V6.89418H111.504V18H108.211V6.89418H104.015ZM117.325 18V4.18182H126.96V6.89418H120.665V9.72798H126.468V12.4471H120.665V15.2876H126.96V18H117.325ZM141.595 9.18821H138.221C138.176 8.84186 138.084 8.52924 137.944 8.25035C137.805 7.97147 137.621 7.73307 137.391 7.53516C137.162 7.33724 136.89 7.18655 136.575 7.0831C136.264 6.97514 135.92 6.92116 135.542 6.92116C134.872 6.92116 134.294 7.08535 133.808 7.41371C133.327 7.74207 132.956 8.21662 132.695 8.83736C132.439 9.4581 132.311 10.2093 132.311 11.0909C132.311 12.0085 132.441 12.7777 132.702 13.3984C132.967 14.0147 133.338 14.4802 133.815 14.7951C134.296 15.1055 134.865 15.2607 135.522 15.2607C135.891 15.2607 136.226 15.2134 136.528 15.119C136.833 15.0245 137.101 14.8873 137.33 14.7074C137.564 14.523 137.756 14.3003 137.904 14.0394C138.057 13.774 138.163 13.4749 138.221 13.142L141.595 13.1623C141.536 13.774 141.358 14.3768 141.062 14.9705C140.769 15.5643 140.367 16.1063 139.854 16.5966C139.341 17.0824 138.716 17.4692 137.978 17.7571C137.245 18.045 136.404 18.1889 135.455 18.1889C134.204 18.1889 133.084 17.9145 132.095 17.3658C131.11 16.8125 130.331 16.0073 129.76 14.9503C129.189 13.8932 128.903 12.6068 128.903 11.0909C128.903 9.57055 129.193 8.28184 129.774 7.22479C130.354 6.16773 131.139 5.36482 132.128 4.81605C133.118 4.26728 134.227 3.9929 135.455 3.9929C136.291 3.9929 137.065 4.10985 137.776 4.34375C138.486 4.57315 139.112 4.91051 139.651 5.35582C140.191 5.79664 140.63 6.33866 140.967 6.98189C141.305 7.62512 141.514 8.36056 141.595 9.18821ZM143.506 18V4.18182H146.846V9.72798H152.291V4.18182H155.624V18H152.291V12.4471H146.846V18H143.506Z" fill="white"/>
<path d="M55.5724 29V24.2727H57.2251C57.5545 24.2727 57.8261 24.3297 58.04 24.4435C58.2538 24.5559 58.4131 24.7074 58.5178 24.8983C58.6224 25.0875 58.6747 25.2976 58.6747 25.5284C58.6747 25.7315 58.6386 25.8993 58.5662 26.0316C58.4954 26.1639 58.4016 26.2686 58.2846 26.3455C58.1692 26.4225 58.0438 26.4794 57.9084 26.5163V26.5625C58.053 26.5717 58.1984 26.6225 58.3446 26.7148C58.4908 26.8072 58.6132 26.9395 58.7116 27.1119C58.8101 27.2842 58.8594 27.495 58.8594 27.7443C58.8594 27.9813 58.8055 28.1944 58.6978 28.3837C58.5901 28.573 58.42 28.723 58.1877 28.8338C57.9553 28.9446 57.6529 29 57.2805 29H55.5724ZM56.1449 28.4922H57.2805C57.6545 28.4922 57.9199 28.4199 58.0769 28.2752C58.2354 28.129 58.3146 27.9521 58.3146 27.7443C58.3146 27.5843 58.2739 27.4366 58.1923 27.3011C58.1107 27.1642 57.9946 27.0549 57.8438 26.9734C57.6929 26.8903 57.5144 26.8487 57.3082 26.8487H56.1449V28.4922ZM56.1449 26.3501H57.2067C57.379 26.3501 57.5344 26.3163 57.6729 26.2486C57.813 26.1809 57.9238 26.0855 58.0053 25.9624C58.0884 25.8393 58.13 25.6946 58.13 25.5284C58.13 25.3207 58.0576 25.1445 57.913 24.9998C57.7683 24.8536 57.5391 24.7805 57.2251 24.7805H56.1449V26.3501ZM61.295 29V24.2727H61.8674V28.4922H64.0649V29H61.295ZM70.2508 26.6364C70.2508 27.1349 70.1608 27.5658 69.9807 27.929C69.8007 28.2921 69.5537 28.5722 69.2398 28.7692C68.9259 28.9661 68.5673 29.0646 68.1641 29.0646C67.761 29.0646 67.4024 28.9661 67.0885 28.7692C66.7746 28.5722 66.5276 28.2921 66.3476 27.929C66.1675 27.5658 66.0775 27.1349 66.0775 26.6364C66.0775 26.1378 66.1675 25.7069 66.3476 25.3438C66.5276 24.9806 66.7746 24.7005 67.0885 24.5036C67.4024 24.3066 67.761 24.2081 68.1641 24.2081C68.5673 24.2081 68.9259 24.3066 69.2398 24.5036C69.5537 24.7005 69.8007 24.9806 69.9807 25.3438C70.1608 25.7069 70.2508 26.1378 70.2508 26.6364ZM69.6968 26.6364C69.6968 26.227 69.6283 25.8816 69.4914 25.6C69.356 25.3184 69.1721 25.1052 68.9397 24.9606C68.7089 24.8159 68.4504 24.7436 68.1641 24.7436C67.8779 24.7436 67.6186 24.8159 67.3863 24.9606C67.1554 25.1052 66.9715 25.3184 66.8346 25.6C66.6992 25.8816 66.6315 26.227 66.6315 26.6364C66.6315 27.0457 66.6992 27.3912 66.8346 27.6728C66.9715 27.9544 67.1554 28.1675 67.3863 28.3121C67.6186 28.4568 67.8779 28.5291 68.1641 28.5291C68.4504 28.5291 68.7089 28.4568 68.9397 28.3121C69.1721 28.1675 69.356 27.9544 69.4914 27.6728C69.6283 27.3912 69.6968 27.0457 69.6968 26.6364ZM76.5123 25.75H75.9399C75.906 25.5853 75.8468 25.4407 75.7621 25.3161C75.679 25.1914 75.5775 25.0868 75.4574 25.0021C75.3389 24.916 75.2074 24.8513 75.0627 24.8082C74.9181 24.7652 74.7673 24.7436 74.6103 24.7436C74.3241 24.7436 74.0648 24.8159 73.8324 24.9606C73.6016 25.1052 73.4177 25.3184 73.2808 25.6C73.1453 25.8816 73.0776 26.227 73.0776 26.6364C73.0776 27.0457 73.1453 27.3912 73.2808 27.6728C73.4177 27.9544 73.6016 28.1675 73.8324 28.3121C74.0648 28.4568 74.3241 28.5291 74.6103 28.5291C74.7673 28.5291 74.9181 28.5076 75.0627 28.4645C75.2074 28.4214 75.3389 28.3575 75.4574 28.2729C75.5775 28.1867 75.679 28.0813 75.7621 27.9567C75.8468 27.8305 75.906 27.6858 75.9399 27.5227H76.5123C76.4692 27.7643 76.3907 27.9805 76.2769 28.1713C76.163 28.3622 76.0214 28.5245 75.8521 28.6584C75.6829 28.7907 75.4928 28.8915 75.282 28.9608C75.0727 29.03 74.8488 29.0646 74.6103 29.0646C74.2071 29.0646 73.8486 28.9661 73.5347 28.7692C73.2208 28.5722 72.9738 28.2921 72.7937 27.929C72.6137 27.5658 72.5237 27.1349 72.5237 26.6364C72.5237 26.1378 72.6137 25.7069 72.7937 25.3438C72.9738 24.9806 73.2208 24.7005 73.5347 24.5036C73.8486 24.3066 74.2071 24.2081 74.6103 24.2081C74.8488 24.2081 75.0727 24.2427 75.282 24.312C75.4928 24.3812 75.6829 24.4828 75.8521 24.6167C76.0214 24.749 76.163 24.9106 76.2769 25.1014C76.3907 25.2907 76.4692 25.5069 76.5123 25.75ZM78.9323 29V24.2727H79.5048V26.6179H79.5602L81.6837 24.2727H82.4316L80.4465 26.4055L82.4316 29H81.7391L80.0957 26.8026L79.5048 27.4673V29H78.9323ZM88.2494 25.75H87.6769C87.6431 25.5853 87.5838 25.4407 87.4992 25.3161C87.4161 25.1914 87.3145 25.0868 87.1945 25.0021C87.076 24.916 86.9444 24.8513 86.7998 24.8082C86.6551 24.7652 86.5043 24.7436 86.3474 24.7436C86.0612 24.7436 85.8019 24.8159 85.5695 24.9606C85.3387 25.1052 85.1548 25.3184 85.0178 25.6C84.8824 25.8816 84.8147 26.227 84.8147 26.6364C84.8147 27.0457 84.8824 27.3912 85.0178 27.6728C85.1548 27.9544 85.3387 28.1675 85.5695 28.3121C85.8019 28.4568 86.0612 28.5291 86.3474 28.5291C86.5043 28.5291 86.6551 28.5076 86.7998 28.4645C86.9444 28.4214 87.076 28.3575 87.1945 28.2729C87.3145 28.1867 87.4161 28.0813 87.4992 27.9567C87.5838 27.8305 87.6431 27.6858 87.6769 27.5227H88.2494C88.2063 27.7643 88.1278 27.9805 88.0139 28.1713C87.9001 28.3622 87.7585 28.5245 87.5892 28.6584C87.4199 28.7907 87.2299 28.8915 87.0191 28.9608C86.8098 29.03 86.5859 29.0646 86.3474 29.0646C85.9442 29.0646 85.5857 28.9661 85.2717 28.7692C84.9578 28.5722 84.7108 28.2921 84.5308 27.929C84.3508 27.5658 84.2607 27.1349 84.2607 26.6364C84.2607 26.1378 84.3508 25.7069 84.5308 25.3438C84.7108 24.9806 84.9578 24.7005 85.2717 24.5036C85.5857 24.3066 85.9442 24.2081 86.3474 24.2081C86.5859 24.2081 86.8098 24.2427 87.0191 24.312C87.2299 24.3812 87.4199 24.4828 87.5892 24.6167C87.7585 24.749 87.9001 24.9106 88.0139 25.1014C88.1278 25.2907 88.2063 25.5069 88.2494 25.75ZM90.6694 29V24.2727H91.2418V26.3778H93.7624V24.2727H94.3349V29H93.7624V26.8857H91.2418V29H90.6694ZM97.1698 29H96.5697L98.3055 24.2727H98.8964L100.632 29H100.032L98.6194 25.0206H98.5825L97.1698 29ZM97.3914 27.1534H99.8104V27.6612H97.3914V27.1534ZM103.436 24.2727V29H102.863V24.2727H103.436ZM109.827 24.2727V29H109.273L106.697 25.2884H106.651V29H106.079V24.2727H106.633L109.218 27.9936H109.264V24.2727H109.827ZM118.376 25.4545C118.348 25.2206 118.236 25.0391 118.039 24.9098C117.842 24.7805 117.601 24.7159 117.314 24.7159C117.105 24.7159 116.922 24.7498 116.765 24.8175C116.61 24.8852 116.488 24.9783 116.4 25.0968C116.314 25.2153 116.271 25.3499 116.271 25.5007C116.271 25.6269 116.301 25.7354 116.361 25.8262C116.423 25.9154 116.501 25.9901 116.596 26.0501C116.692 26.1085 116.792 26.157 116.897 26.1955C117.001 26.2324 117.097 26.2624 117.185 26.2855L117.665 26.4148C117.788 26.4471 117.925 26.4917 118.076 26.5487C118.228 26.6056 118.374 26.6833 118.512 26.7818C118.652 26.8787 118.768 27.0034 118.859 27.1557C118.949 27.3081 118.995 27.495 118.995 27.7166C118.995 27.9721 118.928 28.2029 118.794 28.4091C118.662 28.6153 118.468 28.7792 118.212 28.9007C117.958 29.0223 117.65 29.0831 117.287 29.0831C116.948 29.0831 116.655 29.0285 116.407 28.9192C116.161 28.81 115.967 28.6576 115.826 28.4622C115.685 28.2667 115.606 28.0398 115.588 27.7812H116.179C116.194 27.9598 116.254 28.1075 116.359 28.2244C116.465 28.3398 116.599 28.426 116.76 28.483C116.923 28.5384 117.099 28.5661 117.287 28.5661C117.505 28.5661 117.701 28.5307 117.875 28.4599C118.049 28.3875 118.187 28.2875 118.288 28.1598C118.39 28.0305 118.441 27.8797 118.441 27.7074C118.441 27.5504 118.397 27.4227 118.309 27.3242C118.221 27.2257 118.106 27.1457 117.963 27.0842C117.82 27.0226 117.665 26.9687 117.499 26.9226L116.917 26.7564C116.548 26.6502 116.256 26.4986 116.04 26.3017C115.825 26.1047 115.717 25.8469 115.717 25.5284C115.717 25.2637 115.789 25.0329 115.932 24.8359C116.076 24.6374 116.27 24.4835 116.513 24.3743C116.758 24.2635 117.031 24.2081 117.333 24.2081C117.637 24.2081 117.908 24.2627 118.145 24.372C118.382 24.4797 118.57 24.6274 118.708 24.8152C118.849 25.0029 118.922 25.216 118.93 25.4545H118.376ZM121.431 29V24.2727H124.284V24.7805H122.003V26.3778H124.136V26.8857H122.003V28.4922H124.321V29H121.431ZM126.811 29V24.2727H128.408C128.777 24.2727 129.08 24.3358 129.317 24.462C129.554 24.5866 129.73 24.7582 129.844 24.9767C129.958 25.1953 130.014 25.4438 130.014 25.7223C130.014 26.0008 129.958 26.2478 129.844 26.4632C129.73 26.6787 129.555 26.848 129.32 26.9711C129.084 27.0926 128.783 27.1534 128.417 27.1534H127.125V26.6364H128.399C128.651 26.6364 128.854 26.5994 129.008 26.5256C129.164 26.4517 129.276 26.3471 129.345 26.2116C129.416 26.0747 129.451 25.9116 129.451 25.7223C129.451 25.533 129.416 25.3676 129.345 25.226C129.274 25.0845 129.161 24.9752 129.006 24.8983C128.85 24.8198 128.645 24.7805 128.389 24.7805H127.383V29H126.811ZM129.036 26.8764L130.199 29H129.534L128.389 26.8764H129.036ZM132.549 24.2727L133.953 28.2521H134.008L135.412 24.2727H136.012L134.276 29H133.685L131.949 24.2727H132.549ZM138.815 24.2727V29H138.243V24.2727H138.815ZM145.262 25.75H144.69C144.656 25.5853 144.597 25.4407 144.512 25.3161C144.429 25.1914 144.327 25.0868 144.207 25.0021C144.089 24.916 143.957 24.8513 143.813 24.8082C143.668 24.7652 143.517 24.7436 143.36 24.7436C143.074 24.7436 142.815 24.8159 142.582 24.9606C142.352 25.1052 142.168 25.3184 142.031 25.6C141.895 25.8816 141.828 26.227 141.828 26.6364C141.828 27.0457 141.895 27.3912 142.031 27.6728C142.168 27.9544 142.352 28.1675 142.582 28.3121C142.815 28.4568 143.074 28.5291 143.36 28.5291C143.517 28.5291 143.668 28.5076 143.813 28.4645C143.957 28.4214 144.089 28.3575 144.207 28.2729C144.327 28.1867 144.429 28.0813 144.512 27.9567C144.597 27.8305 144.656 27.6858 144.69 27.5227H145.262C145.219 27.7643 145.141 27.9805 145.027 28.1713C144.913 28.3622 144.771 28.5245 144.602 28.6584C144.433 28.7907 144.243 28.8915 144.032 28.9608C143.823 29.03 143.599 29.0646 143.36 29.0646C142.957 29.0646 142.599 28.9661 142.285 28.7692C141.971 28.5722 141.724 28.2921 141.544 27.929C141.364 27.5658 141.274 27.1349 141.274 26.6364C141.274 26.1378 141.364 25.7069 141.544 25.3438C141.724 24.9806 141.971 24.7005 142.285 24.5036C142.599 24.3066 142.957 24.2081 143.36 24.2081C143.599 24.2081 143.823 24.2427 144.032 24.312C144.243 24.3812 144.433 24.4828 144.602 24.6167C144.771 24.749 144.913 24.9106 145.027 25.1014C145.141 25.2907 145.219 25.5069 145.262 25.75ZM147.682 29V24.2727H150.535V24.7805H148.255V26.3778H150.388V26.8857H148.255V28.4922H150.572V29H147.682Z" fill="white"/>
</svg>
