<svg width="1437" height="340" viewBox="0 0 1437 340" fill="none" xmlns="http://www.w3.org/2000/svg">
<path d="M602.663 165.139H620.077V387H594.643H480.843H455.846H442.441H416.554H409.537H391.152H375.144H349.71H341.334H327.008H311.389H197.524H162.049H149.841H122.192H108.739H95.1726H66.1325H0V269.332H12.8384V163.522H20.6644V96.1066H24.4965V86.4907H31.0289L47.6833 52.9656L64.1599 86.4907H70.7084V96.1066H74.5406V163.522H82.415V210.28H108.739V108.192H162.033V274.809H197.524V323.149H208.309V317.289H222.7V310.542H242.524V317.289H268.912V301.97H280.489V292.441H299.181V317.289H302.787V307.465H311.389V283.851H327.008V92.2289H350.81V83.0304H370.213V39.3155H373.059V83.0304H376.648V62.3032H379.494V83.0304H388.581V92.2289H409.537H416.554V120.138H455.846H480.843V152.533H487.457V159.279H513.845V143.96H525.422V120.92H542.61V84.1433H544.098V120.92V146.238V159.279H547.703V149.455H566.767V155.836H570.696V159.279H602.631V165.139H602.663ZM1425.81 275.661V113.895H1418.97V54.9652H1415.62V46.5492H1409.92L1395.35 17.2494L1380.94 46.5492H1375.22V54.9652H1371.87V113.895H1364.98V224.052H1359.92V174.842H1357.51V224.034H1353.82V195.482H1350.67V224.034H1347.86V203.638H1341.97V141.647H1295.37V271.244H1281.43V249.004H1279.82V271.244H1274.58V280.425H1264.34V378.514H1295.36H1306.03H1330.19H1341.94H1353.81H1379.19H1437V275.644L1425.81 275.661ZM1164.81 322.697H1243.16V317.567H1230.58V311.673H1213.25V317.567H1190.18V304.178H1180.05V295.849H1164.81V288.337H1151.16V120.833H1130.35V112.782H1113.39V74.5621H1110.9V112.782H1107.76V94.6807H1105.27V112.8H1097.31V120.851H1078.99H1072.85V145.247H1038.51H1016.66V173.573H1010.89V179.467H987.816V166.078H977.694V145.942H962.657V113.791H961.347V145.942V168.078V179.467H958.194V170.877H941.556V176.442H938.128V179.45H910.203V184.58H894.972V378.514H917.205H1016.68H1038.52H1050.25H1072.87H1079.01H1095.1H1097.33H1119.56H1138.64H1151.16H1164.81H1252.59V322.68L1164.81 322.697ZM868.47 120.329H867.047V155.315H839.382V160.879H814.271V98.6453H805.216V90.7509H793.606L771.843 60.0427L759.813 76.8401V0H697.949H689.411V203.394H654.146V280.391H625.672V378.514H654.146H689.411H697.949H729.253H735.914H755.576H759.813H762.27H787.931H791.327H794.609H801.562H806.704H814.271H878.35V160.879H868.47V120.329Z" fill="url(#paint0_linear_802_33200)"/>
<defs>
<linearGradient id="paint0_linear_802_33200" x1="718.514" y1="174.925" x2="718.514" y2="338.613" gradientUnits="userSpaceOnUse">
<stop stop-color="#352666"/>
<stop offset="0.644" stop-color="#37287B"/>
<stop offset="0.9985" stop-color="#382A85"/>
</linearGradient>
</defs>
</svg>
