<svg width="680" height="211" viewBox="0 0 680 211" fill="none" xmlns="http://www.w3.org/2000/svg">
<path d="M899.258 212.091H894.292V201.55H886.946V195H875.069V212.061H872.791V205.332H867.339V189.104H857.433V57.4666H842.305V51.1542H829.994V21.1405H828.176V51.184H825.898V36.9513H824.081V51.184H818.296V57.4964H800.532V76.6719H759.705V98.9439H755.507V103.589H738.742V93.0484H731.396V77.2376H720.466V51.9581H719.519V103.589H717.241V96.8597H714.195V-0.00012207H708.768H669.478V33.7058H652.84V54.9953L648.028 62.3499H640.656V67.7689H634.897V110.527H618.95V106.686H613.472V63.0346H575.794V92.6613H570.163V144.113H564.609V140.689H561.486V124.194H549.711H531.231V109.991H527.929H518.074V105.316H513.799V94.7754H512.468V105.316H510.779V83.0438H509.448V105.316H500.31V109.991H489.099V149.265H445.892V168.232H436.421V192.261H434.322V200.151H433.324V189.075H432.198V200.151H430.867V181.095H429.996V200.151H428.179V157.453H425.722V134.615H424.519V131.34H422.471L417.3 119.966L412.079 131.34H410.031V134.615H408.828V157.453H406.371V182.703H375.962V179.219H367.822V106.537H362.857V60.1464H360.425V53.5362H356.278L345.707 30.5198L335.238 53.5362H331.091V60.1464H328.66V106.447H323.643V138.575H306.928V68.4538H273.09V141.255H210.301V165.105H181.531V159.15H150.482V108.591H146.643V159.15H142.342V135.24H138.401V159.15H130.158V165.105H115.645V108.383H92.7875V77.6544H84.315V108.383H77.3527V212.567H71.5424V168.946H45.1523V199.436H15.0764V212.567H0V260H77.3271H84.2894H104.536H115.62H215.113H236.87H343.403H375.962H402.326H420.628H423.06H432.146H434.476H436.395H440.619H449.271H453.11H464.219H481.752H489.099H495.831H506.095H518.074H519.277H527.929H531.231H543.415H549.711H561.486H601.365H615.059H627.038H634.897H639.709H642.96H647.362H649.461H651.611H667.916H669.478H671.295H672.165H684.656H688.88H708.768H714.195H736.592H754.688H900C899.949 244.01 899.693 228.051 899.258 212.091Z" fill="url(#paint0_linear_802_34028)"/>
<defs>
<linearGradient id="paint0_linear_802_34028" x1="450.001" y1="-148.973" x2="450.001" y2="257.952" gradientUnits="userSpaceOnUse">
<stop stop-color="#040708"/>
<stop offset="0.0709" stop-color="#090D12"/>
<stop offset="0.3882" stop-color="#1A1D2F"/>
<stop offset="0.6599" stop-color="#202241"/>
<stop offset="0.8722" stop-color="#22254B"/>
<stop offset="0.999" stop-color="#23254F"/>
</linearGradient>
</defs>
</svg>
