<svg width="594" height="219" viewBox="0 0 594 219" fill="none" xmlns="http://www.w3.org/2000/svg">
<path d="M586.161 218.609V213.823H573.174V218.609H563.751V222.75H556.677V188.545H533.449V70.6198H498.554V142.866H481.318V109.765H476.145V62.0607H473.637V55.2503H469.361L458.565 31.5365L447.664 55.2503H443.388V62.0607H440.88V109.765H435.76V184.649H427.366V188.238H396.008V162.223H393.474V138.694H392.234V135.319H390.122L384.738 123.6L379.406 135.319H377.294V138.694H376.053V162.223H373.52V206.215H371.645V186.581H370.748V206.215H369.375V194.803H368.214V206.215H367.185V198.086H365.02V173.329H347.81V225.082H342.663V216.185H342.056V225.082H340.129V228.763H336.355V231.371H332.369V223.333H326.747V218.333H318.274V213.823H310.698V113.323H299.137V108.507H289.714V85.5598H288.342V108.507H286.6V97.6468H285.227V108.507H280.819V113.323H270.657H267.252V127.956H248.194H236.052V144.952H232.832V148.48H220.03V140.442H214.408V128.355H206.067V109.059H205.302V128.355V141.639V148.48H203.56V143.326H194.902V113.875H188.409V85.161H187.485V109.918H176.768V113.875H160.324V69.8222H154.385V64.2389H146.783L132.53 42.4885L124.638 54.3913V-0.00012207H84.147H78.5512V99.7943H75.4102V106.727H73.061V53.5323H72.0844V79.5777H60.8135V95.8676H53.2381V106.727H35.9491V101.942H31.6202V78.9949H-10.4804V59.2384H-28.7988V52.7348H-34.7641V38.0709H-36.6118V52.7348H-38.961V21.8731H-40.8351V52.8268H-53.5312V59.3305H-69.1309V194.956H-79.3459V211.676H-84.9681V218.609H-87.3173V201.031H-99.5648V207.78H-107.14V218.64H-112.261C-112.71 235.083 -112.974 251.526 -113 268H36.8465H55.508H78.604H84.1998H104.709H109.064H121.945H122.843H124.717H126.327H143.141H145.358H147.522H152.062H155.415H160.377H168.48H180.833H194.955H236.079H248.221H254.714H267.278H270.683H279.605H280.845H293.198H303.783H310.725H318.3H336.381H347.837H351.796H360.718H365.073H367.053H369.455H378.825H381.332H400.205H427.392H460.967H593.261C593.287 251.802 593.551 235.604 593.974 219.437C593.974 219.192 594 218.916 594 218.67H586.161V218.609Z" fill="url(#paint0_linear_802_34027)"/>
<defs>
<linearGradient id="paint0_linear_802_34027" x1="240.45" y1="-153.394" x2="240.45" y2="265.86" gradientUnits="userSpaceOnUse">
<stop stop-color="#040708"/>
<stop offset="0.0709" stop-color="#090D12"/>
<stop offset="0.3882" stop-color="#1A1D2F"/>
<stop offset="0.6599" stop-color="#202241"/>
<stop offset="0.8722" stop-color="#22254B"/>
<stop offset="0.999" stop-color="#23254F"/>
</linearGradient>
</defs>
</svg>
