<svg width="1007" height="214" viewBox="0 0 1007 214" fill="none" xmlns="http://www.w3.org/2000/svg">
<path d="M218.457 108.9C218.457 122.598 215.631 136.162 210.142 148.817C204.653 161.473 196.607 172.972 186.464 182.657C176.322 192.343 164.28 200.027 151.028 205.269C137.776 210.511 123.572 213.209 109.228 213.209C94.8843 213.209 80.6806 210.511 67.4285 205.269C54.1763 200.027 42.135 192.343 31.9922 182.657C21.8494 172.972 13.8037 161.473 8.31451 148.817C2.82527 136.162 -1.254e-06 122.598 0 108.9H21.8457C21.8457 119.859 24.1059 130.71 28.4973 140.834C32.8887 150.958 39.3252 160.157 47.4395 167.906C55.5537 175.655 65.1867 181.801 75.7884 185.995C86.3902 190.189 97.7531 192.347 109.228 192.347C120.704 192.347 132.066 190.189 142.668 185.995C153.27 181.801 162.903 175.655 171.017 167.906C179.131 160.157 185.568 150.958 189.959 140.834C194.351 130.71 196.611 119.859 196.611 108.9H218.457Z" fill="#634394"/>
<path d="M613.384 104.308C613.384 118.006 610.542 131.57 605.02 144.225C599.497 156.88 591.403 168.379 581.2 178.065C570.996 187.751 558.882 195.434 545.551 200.676C532.219 205.918 517.93 208.616 503.5 208.616C489.069 208.616 474.78 205.918 461.449 200.676C448.117 195.434 436.003 187.751 425.8 178.065C415.596 168.379 407.502 156.88 401.98 144.225C396.457 131.57 393.615 118.006 393.615 104.308H415.592C415.592 115.266 417.866 126.118 422.284 136.242C426.701 146.366 433.177 155.565 441.34 163.314C449.503 171.062 459.193 177.209 469.859 181.403C480.524 185.596 491.955 187.755 503.5 187.755C515.044 187.755 526.475 185.596 537.14 181.403C547.806 177.209 557.497 171.062 565.66 163.314C573.823 155.565 580.298 146.366 584.716 136.242C589.133 126.118 591.407 115.266 591.407 104.308H613.384Z" fill="#634394"/>
<path d="M1007 108.9C1007 122.598 1004.17 136.162 998.685 148.817C993.196 161.473 985.15 172.972 975.007 182.657C964.865 192.343 952.823 200.027 939.571 205.269C926.319 210.511 912.115 213.209 897.771 213.209C883.427 213.209 869.224 210.511 855.971 205.269C842.719 200.027 830.678 192.343 820.535 182.657C810.392 172.972 802.347 161.473 796.857 148.817C791.368 136.162 788.543 122.598 788.543 108.9H810.389C810.389 119.859 812.649 130.71 817.04 140.834C821.432 150.958 827.868 160.157 835.982 167.906C844.097 175.655 853.73 181.801 864.331 185.995C874.933 190.189 886.296 192.347 897.771 192.347C909.247 192.347 920.609 190.189 931.211 185.995C941.813 181.801 951.446 175.655 959.56 167.906C967.674 160.157 974.111 150.958 978.502 140.834C982.894 130.71 985.154 119.859 985.154 108.9H1007Z" fill="#634394"/>
<path d="M196.946 109.322C196.928 95.6175 199.738 82.0426 205.214 69.3722C210.691 56.7017 218.727 45.1839 228.865 35.4762C239.003 25.7685 251.043 18.0611 264.298 12.7941C277.554 7.52701 291.765 4.80346 306.12 4.77891C320.475 4.75437 334.693 7.42931 347.962 12.651C361.232 17.8727 373.292 25.5389 383.456 35.2119C393.619 44.8849 401.686 56.3752 407.196 69.0268C412.707 81.6785 415.552 95.2437 415.57 108.948L393.708 108.985C393.693 98.0219 391.417 87.1697 387.009 77.0484C382.601 66.9271 376.147 57.7348 368.016 49.9965C359.885 42.2581 350.237 36.1251 339.621 31.9478C329.006 27.7704 317.632 25.6304 306.148 25.6501C294.663 25.6697 283.295 27.8486 272.69 32.0622C262.086 36.2758 252.454 42.4418 244.344 50.2079C236.234 57.9741 229.804 67.1884 225.423 77.3247C221.042 87.461 218.794 98.3209 218.809 109.284L196.946 109.322Z" fill="#2E2F7A"/>
<path d="M591.442 109.509C591.423 95.8045 594.233 82.2296 599.709 69.5592C605.186 56.8888 613.223 45.3709 623.36 35.6632C633.498 25.9555 645.538 18.2481 658.794 12.9811C672.049 7.71402 686.26 4.99047 700.615 4.96593C714.97 4.94138 729.188 7.61633 742.457 12.838C755.727 18.0597 767.787 25.7259 777.951 35.3989C788.114 45.0719 796.181 56.5622 801.692 69.2138C807.202 81.8655 810.047 95.4307 810.065 109.135L788.203 109.172C788.189 98.2089 785.912 87.3568 781.504 77.2354C777.096 67.1141 770.642 57.9219 762.511 50.1835C754.381 42.4451 744.732 36.3121 734.117 32.1348C723.501 27.9574 712.127 25.8175 700.643 25.8371C689.159 25.8567 677.79 28.0356 667.186 32.2492C656.581 36.4628 646.949 42.6288 638.839 50.3949C630.729 58.1611 624.3 67.3754 619.918 77.5117C615.537 87.6481 613.289 98.5079 613.304 109.471L591.442 109.509Z" fill="#2E2F7A"/>
<ellipse cx="109.579" cy="101.96" rx="51.1918" ry="52.7576" fill="#634394"/>
<ellipse cx="109.85" cy="101.885" rx="39.611" ry="39.5903" fill="#F4F4F4"/>
<path d="M107.904 96.232C107.755 96.0827 107.477 95.88 107.072 95.624C106.688 95.368 106.208 95.1227 105.632 94.888C105.077 94.6533 104.469 94.4507 103.808 94.28C103.147 94.088 102.475 93.992 101.792 93.992C100.597 93.992 99.6907 94.216 99.072 94.664C98.4747 95.112 98.176 95.7413 98.176 96.552C98.176 97.1707 98.368 97.6613 98.752 98.024C99.136 98.3867 99.712 98.696 100.48 98.952C101.248 99.208 102.208 99.4853 103.36 99.784C104.853 100.147 106.144 100.595 107.232 101.128C108.341 101.64 109.184 102.323 109.76 103.176C110.357 104.008 110.656 105.117 110.656 106.504C110.656 107.72 110.432 108.765 109.984 109.64C109.536 110.493 108.917 111.187 108.128 111.72C107.339 112.253 106.443 112.648 105.44 112.904C104.437 113.139 103.371 113.256 102.24 113.256C101.109 113.256 99.9787 113.139 98.848 112.904C97.7173 112.669 96.6293 112.339 95.584 111.912C94.5387 111.464 93.5787 110.931 92.704 110.312L94.656 106.504C94.848 106.696 95.1893 106.952 95.68 107.272C96.1707 107.571 96.768 107.88 97.472 108.2C98.176 108.499 98.944 108.755 99.776 108.968C100.608 109.181 101.451 109.288 102.304 109.288C103.499 109.288 104.405 109.085 105.024 108.68C105.643 108.275 105.952 107.699 105.952 106.952C105.952 106.269 105.707 105.736 105.216 105.352C104.725 104.968 104.043 104.637 103.168 104.36C102.293 104.061 101.259 103.741 100.064 103.4C98.6347 102.995 97.44 102.547 96.48 102.056C95.52 101.544 94.8053 100.904 94.336 100.136C93.8667 99.368 93.632 98.408 93.632 97.256C93.632 95.6987 93.9947 94.3973 94.72 93.352C95.4667 92.2853 96.4693 91.4853 97.728 90.952C98.9867 90.3973 100.384 90.12 101.92 90.12C102.987 90.12 103.989 90.2373 104.928 90.472C105.888 90.7067 106.784 91.016 107.616 91.4C108.448 91.784 109.195 92.2 109.856 92.648L107.904 96.232ZM126.345 109.128V113H113.353V109.128H117.897V99.432C117.705 99.688 117.406 99.9547 117.001 100.232C116.596 100.488 116.137 100.733 115.625 100.968C115.113 101.203 114.601 101.395 114.089 101.544C113.577 101.693 113.118 101.768 112.713 101.768V97.768C113.097 97.768 113.556 97.6507 114.089 97.416C114.644 97.16 115.188 96.8613 115.721 96.52C116.276 96.1787 116.745 95.848 117.129 95.528C117.534 95.1867 117.79 94.92 117.897 94.728H122.281V109.128H126.345Z" fill="#634394"/>
<ellipse cx="304.417" cy="101.96" rx="51.1918" ry="52.7576" fill="#2E2F7A"/>
<ellipse cx="304.689" cy="101.885" rx="39.611" ry="39.5903" fill="#F4F4F4"/>
<path d="M302.904 96.232C302.755 96.0827 302.477 95.88 302.072 95.624C301.688 95.368 301.208 95.1227 300.632 94.888C300.077 94.6533 299.469 94.4507 298.808 94.28C298.147 94.088 297.475 93.992 296.792 93.992C295.597 93.992 294.691 94.216 294.072 94.664C293.475 95.112 293.176 95.7413 293.176 96.552C293.176 97.1707 293.368 97.6613 293.752 98.024C294.136 98.3867 294.712 98.696 295.48 98.952C296.248 99.208 297.208 99.4853 298.36 99.784C299.853 100.147 301.144 100.595 302.232 101.128C303.341 101.64 304.184 102.323 304.76 103.176C305.357 104.008 305.656 105.117 305.656 106.504C305.656 107.72 305.432 108.765 304.984 109.64C304.536 110.493 303.917 111.187 303.128 111.72C302.339 112.253 301.443 112.648 300.44 112.904C299.437 113.139 298.371 113.256 297.24 113.256C296.109 113.256 294.979 113.139 293.848 112.904C292.717 112.669 291.629 112.339 290.584 111.912C289.539 111.464 288.579 110.931 287.704 110.312L289.656 106.504C289.848 106.696 290.189 106.952 290.68 107.272C291.171 107.571 291.768 107.88 292.472 108.2C293.176 108.499 293.944 108.755 294.776 108.968C295.608 109.181 296.451 109.288 297.304 109.288C298.499 109.288 299.405 109.085 300.024 108.68C300.643 108.275 300.952 107.699 300.952 106.952C300.952 106.269 300.707 105.736 300.216 105.352C299.725 104.968 299.043 104.637 298.168 104.36C297.293 104.061 296.259 103.741 295.064 103.4C293.635 102.995 292.44 102.547 291.48 102.056C290.52 101.544 289.805 100.904 289.336 100.136C288.867 99.368 288.632 98.408 288.632 97.256C288.632 95.6987 288.995 94.3973 289.72 93.352C290.467 92.2853 291.469 91.4853 292.728 90.952C293.987 90.3973 295.384 90.12 296.92 90.12C297.987 90.12 298.989 90.2373 299.928 90.472C300.888 90.7067 301.784 91.016 302.616 91.4C303.448 91.784 304.195 92.2 304.856 92.648L302.904 96.232ZM307.521 113C307.521 112.04 307.596 111.176 307.745 110.408C307.894 109.64 308.15 108.925 308.513 108.264C308.897 107.603 309.409 106.984 310.049 106.408C310.71 105.811 311.542 105.235 312.545 104.68C313.42 104.211 314.188 103.805 314.849 103.464C315.51 103.101 316.065 102.771 316.513 102.472C316.982 102.173 317.334 101.875 317.569 101.576C317.804 101.256 317.921 100.893 317.921 100.488C317.921 100.061 317.804 99.6773 317.569 99.336C317.334 98.9733 317.004 98.6853 316.577 98.472C316.15 98.2587 315.617 98.152 314.977 98.152C314.465 98.152 313.985 98.216 313.537 98.344C313.11 98.472 312.705 98.6533 312.321 98.888C311.958 99.1227 311.617 99.3893 311.297 99.688C310.977 99.9653 310.689 100.264 310.433 100.584L307.713 97.448C308.012 97.1493 308.406 96.8293 308.897 96.488C309.409 96.1253 310.006 95.7947 310.689 95.496C311.393 95.176 312.161 94.92 312.993 94.728C313.846 94.5147 314.753 94.408 315.713 94.408C317.164 94.408 318.401 94.6427 319.425 95.112C320.449 95.56 321.228 96.1893 321.761 97C322.316 97.8107 322.593 98.76 322.593 99.848C322.593 100.595 322.454 101.256 322.177 101.832C321.9 102.408 321.548 102.92 321.121 103.368C320.694 103.795 320.225 104.179 319.713 104.52C319.222 104.861 318.742 105.16 318.273 105.416C317.612 105.757 317.014 106.077 316.481 106.376C315.948 106.653 315.478 106.941 315.073 107.24C314.668 107.517 314.305 107.805 313.985 108.104C313.686 108.403 313.42 108.744 313.185 109.128H322.945V113H307.521Z" fill="#2E2F7A"/>
<ellipse cx="501.881" cy="101.96" rx="51.1918" ry="52.7576" fill="#634394"/>
<ellipse cx="502.153" cy="101.885" rx="39.611" ry="39.5903" fill="#F4F4F4"/>
<path d="M499.904 96.232C499.755 96.0827 499.477 95.88 499.072 95.624C498.688 95.368 498.208 95.1227 497.632 94.888C497.077 94.6533 496.469 94.4507 495.808 94.28C495.147 94.088 494.475 93.992 493.792 93.992C492.597 93.992 491.691 94.216 491.072 94.664C490.475 95.112 490.176 95.7413 490.176 96.552C490.176 97.1707 490.368 97.6613 490.752 98.024C491.136 98.3867 491.712 98.696 492.48 98.952C493.248 99.208 494.208 99.4853 495.36 99.784C496.853 100.147 498.144 100.595 499.232 101.128C500.341 101.64 501.184 102.323 501.76 103.176C502.357 104.008 502.656 105.117 502.656 106.504C502.656 107.72 502.432 108.765 501.984 109.64C501.536 110.493 500.917 111.187 500.128 111.72C499.339 112.253 498.443 112.648 497.44 112.904C496.437 113.139 495.371 113.256 494.24 113.256C493.109 113.256 491.979 113.139 490.848 112.904C489.717 112.669 488.629 112.339 487.584 111.912C486.539 111.464 485.579 110.931 484.704 110.312L486.656 106.504C486.848 106.696 487.189 106.952 487.68 107.272C488.171 107.571 488.768 107.88 489.472 108.2C490.176 108.499 490.944 108.755 491.776 108.968C492.608 109.181 493.451 109.288 494.304 109.288C495.499 109.288 496.405 109.085 497.024 108.68C497.643 108.275 497.952 107.699 497.952 106.952C497.952 106.269 497.707 105.736 497.216 105.352C496.725 104.968 496.043 104.637 495.168 104.36C494.293 104.061 493.259 103.741 492.064 103.4C490.635 102.995 489.44 102.547 488.48 102.056C487.52 101.544 486.805 100.904 486.336 100.136C485.867 99.368 485.632 98.408 485.632 97.256C485.632 95.6987 485.995 94.3973 486.72 93.352C487.467 92.2853 488.469 91.4853 489.728 90.952C490.987 90.3973 492.384 90.12 493.92 90.12C494.987 90.12 495.989 90.2373 496.928 90.472C497.888 90.7067 498.784 91.016 499.616 91.4C500.448 91.784 501.195 92.2 501.856 92.648L499.904 96.232ZM515.31 105.448C516.206 105.597 516.984 105.939 517.646 106.472C518.307 106.984 518.819 107.645 519.182 108.456C519.566 109.267 519.758 110.163 519.758 111.144C519.758 112.467 519.416 113.619 518.734 114.6C518.051 115.581 517.08 116.339 515.822 116.872C514.584 117.427 513.123 117.704 511.438 117.704C509.816 117.704 508.376 117.437 507.118 116.904C505.88 116.392 504.846 115.635 504.014 114.632L506.446 111.592C507 112.275 507.662 112.808 508.43 113.192C509.219 113.597 510.179 113.8 511.31 113.8C512.611 113.8 513.603 113.533 514.286 113C514.968 112.488 515.31 111.709 515.31 110.664C515.31 109.555 514.915 108.701 514.126 108.104C513.336 107.507 512.142 107.208 510.542 107.208H509.646V104.008H510.638C511.939 104.008 512.952 103.709 513.678 103.112C514.424 102.515 514.798 101.768 514.798 100.872C514.798 100.296 514.659 99.816 514.382 99.432C514.104 99.048 513.72 98.76 513.23 98.568C512.76 98.376 512.206 98.28 511.566 98.28C510.606 98.28 509.731 98.504 508.942 98.952C508.152 99.4 507.512 100.029 507.022 100.84L504.334 97.832C504.782 97.1707 505.39 96.6053 506.158 96.136C506.947 95.6453 507.843 95.2613 508.846 94.984C509.87 94.7067 510.936 94.568 512.046 94.568C513.496 94.568 514.766 94.8027 515.854 95.272C516.963 95.7413 517.827 96.4027 518.446 97.256C519.064 98.1093 519.374 99.1013 519.374 100.232C519.374 101.064 519.203 101.853 518.862 102.6C518.52 103.347 518.04 103.976 517.422 104.488C516.824 104.979 516.12 105.299 515.31 105.448Z" fill="#634394"/>
<ellipse cx="701.314" cy="107.864" rx="51.1918" ry="52.7576" fill="#2E2F7A"/>
<ellipse cx="701.586" cy="107.789" rx="39.611" ry="39.5903" fill="#F4F4F4"/>
<path d="M699.904 102.232C699.755 102.083 699.477 101.88 699.072 101.624C698.688 101.368 698.208 101.123 697.632 100.888C697.077 100.653 696.469 100.451 695.808 100.28C695.147 100.088 694.475 99.992 693.792 99.992C692.597 99.992 691.691 100.216 691.072 100.664C690.475 101.112 690.176 101.741 690.176 102.552C690.176 103.171 690.368 103.661 690.752 104.024C691.136 104.387 691.712 104.696 692.48 104.952C693.248 105.208 694.208 105.485 695.36 105.784C696.853 106.147 698.144 106.595 699.232 107.128C700.341 107.64 701.184 108.323 701.76 109.176C702.357 110.008 702.656 111.117 702.656 112.504C702.656 113.72 702.432 114.765 701.984 115.64C701.536 116.493 700.917 117.187 700.128 117.72C699.339 118.253 698.443 118.648 697.44 118.904C696.437 119.139 695.371 119.256 694.24 119.256C693.109 119.256 691.979 119.139 690.848 118.904C689.717 118.669 688.629 118.339 687.584 117.912C686.539 117.464 685.579 116.931 684.704 116.312L686.656 112.504C686.848 112.696 687.189 112.952 687.68 113.272C688.171 113.571 688.768 113.88 689.472 114.2C690.176 114.499 690.944 114.755 691.776 114.968C692.608 115.181 693.451 115.288 694.304 115.288C695.499 115.288 696.405 115.085 697.024 114.68C697.643 114.275 697.952 113.699 697.952 112.952C697.952 112.269 697.707 111.736 697.216 111.352C696.725 110.968 696.043 110.637 695.168 110.36C694.293 110.061 693.259 109.741 692.064 109.4C690.635 108.995 689.44 108.547 688.48 108.056C687.52 107.544 686.805 106.904 686.336 106.136C685.867 105.368 685.632 104.408 685.632 103.256C685.632 101.699 685.995 100.397 686.72 99.352C687.467 98.2853 688.469 97.4853 689.728 96.952C690.987 96.3973 692.384 96.12 693.92 96.12C694.987 96.12 695.989 96.2373 696.928 96.472C697.888 96.7067 698.784 97.016 699.616 97.4C700.448 97.784 701.195 98.2 701.856 98.648L699.904 102.232ZM713.289 123.064V118.296H703.945V114.488L714.665 100.728H717.577V114.456H720.393V118.296H717.577V123.064H713.289ZM708.233 114.456H713.769V107.224L708.233 114.456Z" fill="#2E2F7A"/>
<ellipse cx="899.434" cy="107.864" rx="51.1918" ry="52.7576" fill="#634394"/>
<ellipse cx="899.706" cy="107.789" rx="39.611" ry="39.5903" fill="#F4F4F4"/>
<path d="M897.904 102.232C897.755 102.083 897.477 101.88 897.072 101.624C896.688 101.368 896.208 101.123 895.632 100.888C895.077 100.653 894.469 100.451 893.808 100.28C893.147 100.088 892.475 99.992 891.792 99.992C890.597 99.992 889.691 100.216 889.072 100.664C888.475 101.112 888.176 101.741 888.176 102.552C888.176 103.171 888.368 103.661 888.752 104.024C889.136 104.387 889.712 104.696 890.48 104.952C891.248 105.208 892.208 105.485 893.36 105.784C894.853 106.147 896.144 106.595 897.232 107.128C898.341 107.64 899.184 108.323 899.76 109.176C900.357 110.008 900.656 111.117 900.656 112.504C900.656 113.72 900.432 114.765 899.984 115.64C899.536 116.493 898.917 117.187 898.128 117.72C897.339 118.253 896.443 118.648 895.44 118.904C894.437 119.139 893.371 119.256 892.24 119.256C891.109 119.256 889.979 119.139 888.848 118.904C887.717 118.669 886.629 118.339 885.584 117.912C884.539 117.464 883.579 116.931 882.704 116.312L884.656 112.504C884.848 112.696 885.189 112.952 885.68 113.272C886.171 113.571 886.768 113.88 887.472 114.2C888.176 114.499 888.944 114.755 889.776 114.968C890.608 115.181 891.451 115.288 892.304 115.288C893.499 115.288 894.405 115.085 895.024 114.68C895.643 114.275 895.952 113.699 895.952 112.952C895.952 112.269 895.707 111.736 895.216 111.352C894.725 110.968 894.043 110.637 893.168 110.36C892.293 110.061 891.259 109.741 890.064 109.4C888.635 108.995 887.44 108.547 886.48 108.056C885.52 107.544 884.805 106.904 884.336 106.136C883.867 105.368 883.632 104.408 883.632 103.256C883.632 101.699 883.995 100.397 884.72 99.352C885.467 98.2853 886.469 97.4853 887.728 96.952C888.987 96.3973 890.384 96.12 891.92 96.12C892.987 96.12 893.989 96.2373 894.928 96.472C895.888 96.7067 896.784 97.016 897.616 97.4C898.448 97.784 899.195 98.2 899.856 98.648L897.904 102.232ZM909.689 123.768C908.046 123.768 906.564 123.416 905.241 122.712C903.918 122.008 902.916 121.048 902.233 119.832L904.697 117.272C905.294 118.104 906.041 118.765 906.937 119.256C907.833 119.747 908.761 119.992 909.721 119.992C910.489 119.992 911.161 119.832 911.737 119.512C912.334 119.192 912.804 118.744 913.145 118.168C913.486 117.592 913.657 116.931 913.657 116.184C913.657 115.437 913.497 114.787 913.177 114.232C912.857 113.677 912.42 113.251 911.865 112.952C911.31 112.632 910.681 112.472 909.977 112.472C909.273 112.472 908.612 112.632 907.993 112.952C907.396 113.251 906.916 113.688 906.553 114.264H902.809L905.433 100.728H916.633V104.632H908.537L907.609 109.72C907.886 109.464 908.27 109.251 908.761 109.08C909.252 108.888 909.86 108.792 910.585 108.792C912.014 108.792 913.294 109.101 914.425 109.72C915.556 110.339 916.441 111.203 917.081 112.312C917.721 113.4 918.041 114.659 918.041 116.088C918.041 117.603 917.678 118.936 916.953 120.088C916.228 121.261 915.236 122.168 913.977 122.808C912.718 123.448 911.289 123.768 909.689 123.768Z" fill="#634394"/>
<circle cx="10.8244" cy="107.26" r="10.8244" fill="#634394"/>
<circle cx="996.176" cy="109.884" r="10.8244" fill="#634394"/>
</svg>
