<svg width="557" height="544" viewBox="0 0 557 544" fill="none" xmlns="http://www.w3.org/2000/svg">
<g clip-path="url(#clip0_1163_3788)">
<path d="M36.2228 443.829C-27.8906 356.844 -3.93486 204.622 84.4815 102.716C163.64 11.3355 319.526 -48.0036 448.563 51.8203C484.438 79.5813 519.735 132.674 535.822 176.167C568.341 264.886 557.926 412.713 484.786 473.672C479.462 478.067 473.907 482.232 468.236 486.164C462.566 490.097 456.895 494.03 450.646 497.731C368.71 545.966 244.186 551.518 147.901 519.709C132.253 514.868 117.07 508.635 102.535 501.086C90.5521 494.87 79.2961 487.344 68.9739 478.646C56.2712 468.858 45.2147 457.104 36.2228 443.829Z" fill="#764C99"/>
<path opacity="0.5" d="M36.2228 443.829C-27.8906 356.844 -3.93486 204.622 84.4815 102.716C163.64 11.3355 319.526 -48.0036 448.563 51.8203C484.438 79.5813 519.735 132.674 535.822 176.167C568.341 264.886 557.926 412.713 484.786 473.672C479.462 478.067 473.907 482.232 468.236 486.164C462.566 490.097 456.895 494.03 450.646 497.731C368.71 545.966 244.186 551.518 147.901 519.709C132.253 514.868 117.07 508.635 102.535 501.086C90.5521 494.87 79.2961 487.344 68.9739 478.646C56.2712 468.858 45.2147 457.104 36.2228 443.829Z" fill="#00040F"/>
<path opacity="0.1" d="M553.065 298.315C526.727 334.574 492.165 364.077 452.214 384.405C412.262 404.733 368.059 415.306 323.229 415.258C177.99 415.258 58.0955 306.412 41.0835 165.872C53.1103 143.245 67.6697 122.057 84.4816 102.716C163.64 11.3355 319.526 -48.0036 448.563 51.8203C484.438 79.5814 519.736 132.674 535.822 176.167C548.436 210.752 554.685 254.36 553.065 298.315Z" fill="#764C99"/>
<path opacity="0.3" d="M547.395 219.427C512.213 308.725 425.07 371.997 323.229 371.997C190.141 371.997 82.2827 264.192 82.2827 131.171C82.2965 121.894 82.8374 112.625 83.9029 103.41L84.4816 102.716C163.64 11.3355 319.526 -48.0036 448.563 51.8203C484.438 79.5813 519.735 132.674 535.822 176.167C540.852 190.248 544.722 204.716 547.395 219.427Z" fill="#764C99"/>
<g opacity="0.6">
<path opacity="0.6" d="M520.198 141.928C514.643 245.8 428.541 328.389 323.229 328.389C290.346 328.393 257.984 320.183 229.083 304.505C200.183 288.827 175.661 266.179 157.746 238.619C139.831 211.058 129.091 179.46 126.503 146.696C123.914 113.931 129.559 81.0398 142.924 51.0107C227.29 -6.47774 346.259 -27.2985 448.562 51.8204C475.296 72.5255 501.913 107.458 520.198 141.928Z" fill="#764C99"/>
<path d="M477.842 131.17C477.835 157.247 471.226 182.897 458.631 205.734C446.036 228.57 427.864 247.85 405.808 261.777C383.752 275.705 358.528 283.827 332.485 285.388C306.443 286.949 280.429 281.899 256.865 270.706C233.301 259.513 212.954 242.543 197.719 221.375C182.483 200.207 172.854 175.53 169.729 149.641C166.604 123.752 170.084 97.4944 179.845 73.3119C189.606 49.1293 205.33 27.8087 225.554 11.3353C296.264 -10.0638 376.579 -3.81754 448.562 51.8201C453.192 55.4059 457.821 59.4544 462.45 63.8499C472.607 84.8383 477.869 107.856 477.842 131.17Z" fill="#764C99"/>
<path opacity="0.15" d="M404.722 212.645C449.736 167.653 449.736 94.7073 404.722 49.7157C359.708 4.72411 286.726 4.72412 241.712 49.7157C196.698 94.7073 196.698 167.653 241.712 212.645C286.726 257.636 359.708 257.636 404.722 212.645Z" fill="white"/>
<path opacity="0.15" d="M323.229 214.454C369.247 214.454 406.553 177.167 406.553 131.171C406.553 85.1748 369.247 47.8877 323.229 47.8877C277.21 47.8877 239.904 85.1748 239.904 131.171C239.904 177.167 277.21 214.454 323.229 214.454Z" fill="white"/>
<path opacity="0.2" d="M370.157 142.303C376.273 116.441 360.256 90.5187 334.38 84.405C308.505 78.2914 282.57 94.3011 276.453 120.164C270.336 146.026 286.354 171.948 312.23 178.062C338.105 184.176 364.04 168.166 370.157 142.303Z" fill="white"/>
</g>
<path opacity="0.1" d="M102.535 501.086C109.562 504.828 116.786 508.187 124.176 511.15L323.229 131.171L88.1845 492.758C92.8136 495.65 97.5585 498.541 102.535 501.086ZM0.346754 335.677L323.229 131.171L1.27258 294.961C-0.0137993 308.493 -0.323209 322.1 0.346754 335.677ZM35.7596 443.251L323.229 131.171L15.8543 407.508C21.0571 420.165 27.7386 432.162 35.7596 443.251ZM104.271 82.1263L323.229 131.171L122.671 65.9324C116.306 71.1376 110.057 76.5741 104.271 82.1263ZM15.0442 227.525L323.229 131.171L27.5429 193.864C22.7319 204.835 18.5588 216.073 15.0442 227.525ZM54.9705 142.275L323.229 131.171L71.9825 117.869C65.9647 125.734 60.294 133.947 54.9705 142.275ZM542.186 374.311C545.244 362.774 547.64 351.072 549.362 339.263L323.229 131.171L542.186 374.311ZM516.495 436.079L323.229 131.171L493.581 465.575C502.4 456.72 510.096 446.813 516.495 436.079ZM155.075 43.1452L323.229 131.171L172.435 33.1975C166.533 36.3206 160.746 39.6751 155.075 43.1452ZM232.15 537.291L323.229 131.171L192.919 531.392C205.803 533.937 218.88 535.903 232.15 537.291ZM439.767 503.747L323.229 131.171L405.511 518.552C417.232 514.348 428.674 509.402 439.767 503.747ZM339.893 534.862L323.229 131.171L301.703 538.911C314.549 538.101 327.279 536.828 339.893 534.862ZM448.562 51.8205L323.229 131.171L460.019 61.5369C456.162 58.0668 452.343 54.828 448.562 51.8205ZM201.945 19.5484L323.229 131.171L217.569 13.7648C212.245 15.6156 207.037 17.4663 201.945 19.5484ZM509.667 123.421L323.229 131.171L520.082 141.581C516.842 135.451 513.37 129.436 509.667 123.421ZM416.158 30.3058L323.229 131.171L427.615 37.246L416.158 30.3058ZM551.792 250.774L323.229 131.171L553.296 280.617C553.181 270.554 552.718 260.606 551.792 250.774ZM536.747 179.058L323.229 131.171L543.922 202.887C541.839 194.558 539.409 186.577 536.747 179.058ZM479.809 82.242L323.229 131.171L490.572 95.6598C487.1 91.033 483.512 86.5218 479.809 82.242ZM244.07 6.3619L323.229 131.171L258.189 3.5858C253.444 4.39549 248.815 5.32086 244.07 6.3619ZM383.986 15.2686L323.229 131.171L395.443 20.0111C391.624 18.276 387.805 16.6566 383.986 15.2686ZM282.376 0.694025L323.229 131.171L295.338 0C291.056 0.115671 286.658 0.347012 282.376 0.694025ZM351.35 5.43653L323.229 131.171L363.155 8.44397C359.22 7.28726 355.285 6.3619 351.35 5.43653ZM317.789 0.578354L323.229 131.171L330.057 1.73506L317.789 0.578354Z" fill="white"/>
<path d="M323.229 162.633C340.614 162.633 354.707 148.547 354.707 131.171C354.707 113.795 340.614 99.7085 323.229 99.7085C305.844 99.7085 291.751 113.795 291.751 131.171C291.751 148.547 305.844 162.633 323.229 162.633Z" fill="white"/>
<path d="M450.646 497.732C456.895 494.03 462.797 490.097 468.236 486.165C473.676 482.232 479.462 478.068 484.785 473.672C538.946 428.561 558.736 335.792 552.139 254.707H551.792V250.543C551.445 246.842 550.982 243.256 550.519 239.67C550.519 244.066 550.403 249.039 550.288 253.898L542.765 249.849L517.999 263.151V271.942L503.649 279.692L503.881 308.726L485.017 298.546V254.129L469.394 245.685C469.162 231.92 468.815 212.95 468.583 212.95C468.352 212.95 467.889 231.92 467.773 245.685L452.034 254.129V272.868L435.601 264.077L419.052 272.868V283.394L402.618 292.3V232.383L394.286 227.987L386.069 232.383V250.08L377.853 245.685L361.303 254.592V227.987L353.087 223.476L336.538 232.383V297.39L328.321 292.994V284.088L319.988 279.576C319.873 267.084 319.41 238.513 319.063 238.513C318.715 238.513 318.253 265.696 318.137 278.651L311.887 275.181L295.338 284.088V269.05L270.572 255.748L254.139 264.655V246.842L243.724 241.289C243.492 228.219 243.145 201.73 242.798 201.73C242.451 201.73 241.988 226.831 241.872 240.248L237.59 238.051L221.041 246.842V291.259L212.824 295.655V277.957L196.391 269.05L179.842 277.957V304.446L155.076 291.259V224.748L138.642 215.842L122.093 224.748V251.353L113.876 246.957L97.3273 255.748V291.259L80.8939 300.166V271.827L64.3447 262.92L39.5789 276.222V254.476L32.288 250.543C32.1723 237.819 31.7094 227.64 31.3622 227.64C31.015 227.64 30.6678 236.431 30.4363 249.502L23.1455 245.569L7.86934 253.782C-8.21688 323.994 -0.231635 394.438 36.2228 443.829C45.2147 457.104 56.2711 468.858 68.9739 478.646C79.2961 487.344 90.552 494.87 102.535 501.086C117.07 508.635 132.253 514.868 147.901 519.709C244.186 551.519 368.71 545.966 450.646 497.732Z" fill="#764C99"/>
<path opacity="0.2" d="M450.646 497.732C456.895 494.03 462.797 490.097 468.236 486.165C473.676 482.232 479.462 478.068 484.785 473.672C538.946 428.561 558.736 335.792 552.139 254.707H551.792V250.543C551.445 246.842 550.982 243.256 550.519 239.67C550.519 244.066 550.403 249.039 550.288 253.898L542.765 249.849L517.999 263.151V271.942L503.649 279.692L503.881 308.726L485.017 298.546V254.129L469.394 245.685C469.162 231.92 468.815 212.95 468.583 212.95C468.352 212.95 467.889 231.92 467.773 245.685L452.034 254.129V272.868L435.601 264.077L419.052 272.868V283.394L402.618 292.3V232.383L394.286 227.987L386.069 232.383V250.08L377.853 245.685L361.303 254.592V227.987L353.087 223.476L336.538 232.383V297.39L328.321 292.994V284.088L319.988 279.576C319.873 267.084 319.41 238.513 319.063 238.513C318.715 238.513 318.253 265.696 318.137 278.651L311.887 275.181L295.338 284.088V269.05L270.572 255.748L254.139 264.655V246.842L243.724 241.289C243.492 228.219 243.145 201.73 242.798 201.73C242.451 201.73 241.988 226.831 241.872 240.248L237.59 238.051L221.041 246.842V291.259L212.824 295.655V277.957L196.391 269.05L179.842 277.957V304.446L155.076 291.259V224.748L138.642 215.842L122.093 224.748V251.353L113.876 246.957L97.3273 255.748V291.259L80.8939 300.166V271.827L64.3447 262.92L39.5789 276.222V254.476L32.288 250.543C32.1723 237.819 31.7094 227.64 31.3622 227.64C31.015 227.64 30.6678 236.431 30.4363 249.502L23.1455 245.569L7.86934 253.782C-8.21688 323.994 -0.231635 394.438 36.2228 443.829C45.2147 457.104 56.2711 468.858 68.9739 478.646C79.2961 487.344 90.552 494.87 102.535 501.086C117.07 508.635 132.253 514.868 147.901 519.709C244.186 551.519 368.71 545.966 450.646 497.732Z" fill="#00040F"/>
<path d="M254.139 246.842L243.724 241.289C243.492 228.219 243.145 201.73 242.798 201.73C242.451 201.73 241.988 226.831 241.872 240.248L237.59 238.051L221.041 246.842V248.345L221.272 247.073L225.67 245.454L237.359 240.711L239.673 242.215V243.95L250.667 249.155C250.783 251.353 250.899 253.551 251.13 255.748C251.362 259.912 251.825 264.308 252.172 268.588C258.421 264.424 264.67 260.259 270.573 255.748L254.139 264.655V246.842ZM212.824 277.957L196.391 269.05L179.842 277.957C185.351 277.039 190.745 275.527 195.928 273.446L202.409 277.494L208.426 280.733C208.758 285.738 209.376 290.72 210.278 295.655L211.204 300.166C214.748 297.503 218.041 294.522 221.041 291.259L212.824 295.655V277.957ZM39.579 276.222V254.476L32.2881 250.543C33.9083 252.162 37.4959 255.17 37.4959 255.17L36.8015 283.509C36.8015 283.509 55.4337 273.33 64.8077 266.968C70.0349 269.004 75.4134 270.629 80.894 271.827L64.3448 262.92L39.579 276.222ZM122.093 224.748C127.591 223.193 132.999 221.34 138.295 219.196C142.346 221.972 146.512 224.633 150.678 227.178C150.099 248.577 150.678 270.091 155.076 291.259V224.748L138.642 215.842L122.093 224.748ZM328.321 284.088L319.989 279.576C319.873 267.084 319.41 238.513 319.063 238.513C318.716 238.513 318.253 265.696 318.137 278.651L311.888 275.181C313.276 276.453 314.896 277.726 316.401 278.882C316.391 279.157 316.43 279.431 316.517 279.692V282.006L318.253 282.7L325.775 285.938C326.006 288.714 326.354 291.375 326.816 294.151C329.941 295.308 333.182 296.464 336.422 297.39L328.205 292.994L328.321 284.088ZM280.525 261.069L293.255 269.744V289.64L307.374 277.61L295.338 284.088V269.05L280.525 261.069ZM361.304 227.987L353.087 223.476L336.538 232.383V297.39C337.463 291.953 338.158 286.517 338.737 281.08C340.357 265.812 341.051 250.543 341.167 235.159L353.203 228.566L357.253 230.532C357.716 240.017 358.41 249.386 359.336 258.756C365.585 254.592 371.835 250.312 377.853 245.685L361.304 254.592V227.987ZM542.765 249.733L518 263.036V271.827L503.649 279.576L503.881 308.61L485.017 298.431V254.129C482.955 268.82 481.641 283.606 481.082 298.431V300.629C487.91 304.793 494.854 308.726 501.913 312.658L508.626 316.36V308.61C508.626 299.703 508.51 290.912 508.163 282.006L519.851 275.065L521.934 273.793C521.703 270.785 521.587 267.662 521.356 264.539C528.531 259.912 535.822 254.939 542.765 249.733ZM452.034 272.868L435.601 264.077L419.052 272.868V283.394L402.618 292.3V232.383L394.286 227.987L386.069 232.383L394.17 229.26L400.42 233.424C399.147 247.998 398.452 262.689 398.105 277.263C397.989 284.55 397.989 292.532 397.989 299.935L404.702 296.349C411.067 292.994 417.316 289.524 423.565 286.054V283.394C423.565 280.733 423.45 277.957 423.334 275.297L435.832 267.894L442.429 271.017L454.465 276.222C453.886 268.819 453.076 261.416 452.034 254.129V272.868Z" fill="#764C99"/>
<path opacity="0.1" d="M254.139 246.842L243.724 241.289C243.492 228.219 243.145 201.73 242.798 201.73C242.451 201.73 241.988 226.831 241.872 240.248L237.59 238.051L221.041 246.842V248.345L221.272 247.073L225.67 245.454L237.359 240.711L239.673 242.215V243.95L250.667 249.155C250.783 251.353 250.899 253.551 251.13 255.748C251.362 259.912 251.825 264.308 252.172 268.588C258.421 264.424 264.67 260.259 270.573 255.748L254.139 264.655V246.842ZM212.824 277.957L196.391 269.05L179.842 277.957C185.351 277.039 190.745 275.527 195.928 273.446L202.409 277.494L208.426 280.733C208.758 285.738 209.376 290.72 210.278 295.655L211.204 300.166C214.748 297.503 218.041 294.522 221.041 291.259L212.824 295.655V277.957ZM39.579 276.222V254.476L32.2881 250.543C33.9083 252.162 37.4959 255.17 37.4959 255.17L36.8015 283.509C36.8015 283.509 55.4337 273.33 64.8077 266.968C70.0349 269.004 75.4134 270.629 80.894 271.827L64.3448 262.92L39.579 276.222ZM122.093 224.748C127.591 223.193 132.999 221.34 138.295 219.196C142.346 221.972 146.512 224.633 150.678 227.178C150.099 248.577 150.678 270.091 155.076 291.259V224.748L138.642 215.842L122.093 224.748ZM328.321 284.088L319.989 279.576C319.873 267.084 319.41 238.513 319.063 238.513C318.716 238.513 318.253 265.696 318.137 278.651L311.888 275.181C313.276 276.453 314.896 277.726 316.401 278.882C316.391 279.157 316.43 279.431 316.517 279.692V282.006L318.253 282.7L325.775 285.938C326.006 288.714 326.354 291.375 326.816 294.151C329.941 295.308 333.182 296.464 336.422 297.39L328.205 292.994L328.321 284.088ZM280.525 261.069L293.255 269.744V289.64L307.374 277.61L295.338 284.088V269.05L280.525 261.069ZM361.304 227.987L353.087 223.476L336.538 232.383V297.39C337.463 291.953 338.158 286.517 338.737 281.08C340.357 265.812 341.051 250.543 341.167 235.159L353.203 228.566L357.253 230.532C357.716 240.017 358.41 249.386 359.336 258.756C365.585 254.592 371.835 250.312 377.853 245.685L361.304 254.592V227.987ZM542.765 249.733L518 263.036V271.827L503.649 279.576L503.881 308.61L485.017 298.431V254.129C482.955 268.82 481.641 283.606 481.082 298.431V300.629C487.91 304.793 494.854 308.726 501.913 312.658L508.626 316.36V308.61C508.626 299.703 508.51 290.912 508.163 282.006L519.851 275.065L521.934 273.793C521.703 270.785 521.587 267.662 521.356 264.539C528.531 259.912 535.822 254.939 542.765 249.733ZM452.034 272.868L435.601 264.077L419.052 272.868V283.394L402.618 292.3V232.383L394.286 227.987L386.069 232.383L394.17 229.26L400.42 233.424C399.147 247.998 398.452 262.689 398.105 277.263C397.989 284.55 397.989 292.532 397.989 299.935L404.702 296.349C411.067 292.994 417.316 289.524 423.565 286.054V283.394C423.565 280.733 423.45 277.957 423.334 275.297L435.832 267.894L442.429 271.017L454.465 276.222C453.886 268.819 453.076 261.416 452.034 254.129V272.868Z" fill="white"/>
<path d="M287.469 191.551L278.789 186.577V138.69L270.225 133.716V103.641L266.291 101.328V75.7646L246.733 64.4289L244.186 32.041L241.64 64.4289L222.082 75.7646V101.328L218.148 103.641V133.716L209.468 138.69V186.577L200.788 191.551V377.434L213.981 385.068L231.225 394.901L244.186 402.419L287.469 377.434V191.551ZM156.812 167.145L120.473 188.081V379.863L148.826 396.173L185.049 375.121V183.454L156.812 167.145ZM82.7456 213.76L61.9145 225.79V246.61L52.8877 251.7V410.632L67.8166 419.307L76.8434 414.102L79.7367 415.837L100.683 403.807V224.055L82.7456 213.76ZM494.854 227.178V202.424L469.857 188.081L448.563 200.342V414.565L473.444 429.023L477.032 426.941L487.679 433.072L505.501 422.777V233.424L494.854 227.178ZM350.772 159.163L332.14 148.406L319.641 155.577V159.163L310.383 164.6V382.986L338.389 399.18L360.146 386.572V168.186L350.772 162.749V159.163ZM424.723 205.894L417.547 201.846V197.797L405.743 190.973L393.939 197.797V201.846L386.879 205.894V233.193L382.135 235.969V387.035L405.743 400.568L429.352 387.035V235.969L424.723 233.193V205.894Z" fill="#764C99"/>
<path opacity="0.3" d="M287.469 191.551L278.789 186.577V138.69L270.225 133.716V103.641L266.291 101.328V75.7646L246.733 64.4289L244.186 32.041L241.64 64.4289L222.082 75.7646V101.328L218.148 103.641V133.716L209.468 138.69V186.577L200.788 191.551V377.434L213.981 385.068L231.225 394.901L244.186 402.419L287.469 377.434V191.551ZM156.812 167.145L120.473 188.081V379.863L148.826 396.173L185.049 375.121V183.454L156.812 167.145ZM82.7456 213.76L61.9145 225.79V246.61L52.8877 251.7V410.632L67.8166 419.307L76.8434 414.102L79.7367 415.837L100.683 403.807V224.055L82.7456 213.76ZM494.854 227.178V202.424L469.857 188.081L448.563 200.342V414.565L473.444 429.023L477.032 426.941L487.679 433.072L505.501 422.777V233.424L494.854 227.178ZM350.772 159.163L332.14 148.406L319.641 155.577V159.163L310.383 164.6V382.986L338.389 399.18L360.146 386.572V168.186L350.772 162.749V159.163ZM424.723 205.894L417.547 201.846V197.797L405.743 190.973L393.939 197.797V201.846L386.879 205.894V233.193L382.135 235.969V387.035L405.743 400.568L429.352 387.035V235.969L424.723 233.193V205.894Z" fill="#00040F"/>
<path opacity="0.3" d="M405.743 190.973V194.905V221.972L410.488 225.096V283.047L405.743 287.211V400.684L429.352 387.035L429.467 235.969L424.723 233.308V205.894L417.547 201.846V197.797L405.743 190.973Z" fill="#00040F"/>
<path opacity="0.3" d="M332.14 148.521V230.532L338.042 233.424V399.18L360.146 386.688V168.186L350.772 162.865V159.279L332.14 148.521Z" fill="#00040F"/>
<path opacity="0.3" d="M156.812 167.145V268.588L148.016 274.024V396.173L120.473 379.863V188.081L156.812 167.145Z" fill="#00040F"/>
<path opacity="0.3" d="M79.8524 415.837L79.0423 275.065L82.7456 276.453V213.76L61.9146 225.79V246.61L76.8435 254.476V414.102L79.8524 415.837Z" fill="#00040F"/>
<path d="M448.562 254.476L450.761 202.077L469.856 188.081L448.562 200.458V254.476Z" fill="#764C99"/>
<path opacity="0.2" d="M448.562 254.476L450.761 202.077L469.856 188.081L448.562 200.458V254.476Z" fill="white"/>
<path d="M393.939 201.846V197.797L405.743 190.973L411.53 194.327L405.743 192.361L394.633 198.607L393.939 201.846Z" fill="#764C99"/>
<path opacity="0.2" d="M393.939 201.846V197.797L405.743 190.973L411.53 194.327L405.743 192.361L394.633 198.607L393.939 201.846Z" fill="white"/>
<path d="M386.879 230.532V205.894L405.743 194.906L387.921 207.051L386.879 230.532Z" fill="#764C99"/>
<path opacity="0.2" d="M386.879 230.532V205.894L405.743 194.906L387.921 207.051L386.879 230.532Z" fill="white"/>
<path d="M382.135 260.607V235.969L401.114 225.096L383.176 237.125L382.135 260.607Z" fill="#764C99"/>
<path opacity="0.2" d="M382.135 260.607V235.969L401.114 225.096L383.176 237.125L382.135 260.607Z" fill="white"/>
<path d="M310.383 223.592L312.35 166.45L321.724 161.361V156.734L331.908 150.025L350.772 159.279L332.14 148.521L319.641 155.693V159.279L310.383 164.6V223.592Z" fill="#764C99"/>
<path opacity="0.2" d="M310.383 223.592L312.35 166.45L321.724 161.361V156.734L331.908 150.025L350.772 159.279L332.14 148.521L319.641 155.693V159.279L310.383 164.6V223.592Z" fill="white"/>
<path d="M270.225 103.641L249.857 91.9585L267.911 105.029L270.225 133.831V103.641Z" fill="#764C99"/>
<path opacity="0.2" d="M270.225 103.641L249.857 91.9585L267.911 105.029L270.225 133.831V103.641Z" fill="white"/>
<path d="M278.905 138.805L252.519 123.537L275.896 140.54L278.905 177.786V138.805Z" fill="#764C99"/>
<path opacity="0.2" d="M278.905 138.805L252.519 123.537L275.896 140.54L278.905 177.786V138.805Z" fill="white"/>
<path d="M287.469 191.667L261.199 176.398L284.46 193.518L287.469 293.804V191.667Z" fill="#764C99"/>
<path opacity="0.2" d="M287.469 191.667L261.199 176.398L284.46 193.518L287.469 293.804V191.667Z" fill="white"/>
<path d="M244.187 32.1567L245.228 67.4363L264.67 77.2684L266.291 101.444V75.8803L246.733 64.5446L244.187 32.1567Z" fill="#764C99"/>
<path opacity="0.2" d="M244.187 32.1567L245.228 67.4363L264.67 77.2684L266.291 101.444V75.8803L246.733 64.5446L244.187 32.1567Z" fill="white"/>
<path d="M143.966 174.547L156.812 169.921L182.851 184.842L185.165 263.961V183.454L156.812 167.145L143.966 174.547Z" fill="#764C99"/>
<path opacity="0.2" d="M143.966 174.547L156.812 169.921L182.851 184.842L185.165 263.961V183.454L156.812 167.145L143.966 174.547Z" fill="white"/>
<path d="M74.876 218.387L82.7455 215.379L98.2531 225.79L100.683 339.147V224.054L82.7455 213.76L74.876 218.387Z" fill="#764C99"/>
<path opacity="0.2" d="M74.876 218.387L82.7455 215.379L98.2531 225.79L100.683 339.147V224.054L82.7455 213.76L74.876 218.387Z" fill="white"/>
<path opacity="0.3" d="M66.1964 418.382V316.476L60.5258 310.692V246.61L52.8877 251.816V410.747L66.1964 418.382Z" fill="#00040F"/>
<path opacity="0.3" d="M222.083 75.8801L244.071 63.3877V89.7606L239.905 87.5629V118.563L235.623 115.555V164.947L229.836 160.436V257.715L244.187 268.009V402.535L200.904 377.434V191.667L209.468 186.693V138.805L218.148 133.831V103.641L222.083 101.443V75.8801Z" fill="#00040F"/>
<path opacity="0.3" d="M469.856 188.081V267.894L473.791 271.711L473.444 429.023L477.032 426.941V232.961L494.854 227.293V202.54L471.477 189.006" fill="#00040F"/>
<path opacity="0.3" d="M494.854 227.293V295.886L487.679 300.513V433.188L505.501 422.893V233.424L494.854 227.293Z" fill="#00040F"/>
<path d="M538.599 452.967V375.237L525.984 368.528L513.37 375.237V321.103L507.699 318.095C507.584 308.032 507.352 296.465 507.121 296.465C506.889 296.465 506.658 307.569 506.542 317.401L500.756 314.278L481.892 324.457V331.282L470.898 337.181L471.129 359.39L456.663 351.64V317.748L444.628 311.271C444.512 300.745 444.28 286.286 444.049 286.286C443.817 286.286 443.586 300.745 443.355 311.271L431.435 317.748V332.091L418.82 325.267L406.206 332.091V340.073L393.591 346.897V301.092L387.226 297.737L380.977 301.092V314.625L374.612 311.271L361.998 317.979V297.737L355.748 294.267L343.134 301.092V350.83L336.769 347.36V340.651L330.404 337.181C330.288 327.696 329.941 305.834 329.709 305.834C329.478 305.834 329.131 326.539 329.015 336.487L324.154 333.826L311.54 340.651V329.084L292.676 318.905L280.062 325.729V312.196L272.077 307.916C271.961 297.853 271.614 277.61 271.382 277.61C271.151 277.61 270.804 296.927 270.688 307.106L267.448 305.371L254.833 312.196V346.087L248.468 349.442V335.908L235.854 329.084L223.239 335.908V356.267L204.376 346.087V295.308L191.761 288.483L179.147 295.308V315.55L172.782 312.196L160.167 319.021V346.087L147.553 352.912V331.282L134.939 324.457L115.959 334.636V317.979L110.404 314.972C110.289 305.256 109.941 297.506 109.71 297.506C109.479 297.506 109.131 304.099 109.016 314.162L103.345 311.155L84.4812 321.334V369.106L65.5018 358.927L33.7922 375.699V363.322L21.8722 356.845C21.7565 347.591 21.4093 325.035 21.0621 325.035C20.7149 325.035 20.4835 347.591 20.3678 356.845L8.44775 363.322V452.967H538.599Z" fill="#764C99"/>
<g opacity="0.65">
<path d="M538.599 452.967V375.237L525.984 368.528L513.37 375.237V321.103L507.699 318.095C507.584 308.032 507.352 296.465 507.121 296.465C506.889 296.465 506.658 307.569 506.542 317.401L500.756 314.278L481.892 324.457V331.282L470.898 337.181L471.129 359.39L456.663 351.64V317.748L444.628 311.271C444.512 300.745 444.28 286.286 444.049 286.286C443.817 286.286 443.586 300.745 443.355 311.271L431.435 317.748V332.091L418.82 325.267L406.206 332.091V340.073L393.591 346.897V301.092L387.226 297.737L380.977 301.092V314.625L374.612 311.271L361.998 317.979V297.737L355.748 294.267L343.134 301.092V350.83L336.769 347.36V340.651L330.404 337.181C330.288 327.696 329.941 305.834 329.709 305.834C329.478 305.834 329.131 326.539 329.015 336.487L324.154 333.826L311.54 340.651V329.084L292.676 318.905L280.062 325.729V312.196L272.077 307.916C271.961 297.853 271.614 277.61 271.382 277.61C271.151 277.61 270.804 296.927 270.688 307.106L267.448 305.371L254.833 312.196V346.087L248.468 349.442V335.908L235.854 329.084L223.239 335.908V356.267L204.376 346.087V295.308L191.761 288.483L179.147 295.308V315.55L172.782 312.196L160.167 319.021V346.087L147.553 352.912V331.282L134.939 324.457L115.959 334.636V317.979L110.404 314.972C110.289 305.256 109.941 297.506 109.71 297.506C109.479 297.506 109.131 304.099 109.016 314.162L103.345 311.155L84.4812 321.334V369.106L65.5018 358.927L33.7922 375.699V363.322L21.8722 356.845C21.7565 347.591 21.4093 325.035 21.0621 325.035C20.7149 325.035 20.4835 347.591 20.3678 356.845L8.44775 363.322V452.967H538.599Z" fill="#00040F"/>
</g>
<path d="M202.756 414.564L134.708 524.914C89.6892 511.959 49.3001 492.295 18.0534 465.922C12.9614 461.758 8.1008 457.478 3.5874 452.967L8.56372 451.232C69.8997 431.915 135.749 419.654 202.756 414.564Z" fill="#455A64"/>
<path d="M108.784 447.299C128.574 437.698 154.844 445.68 172.203 432.146C177.643 427.982 181.462 422.198 184.818 416.184C123.945 421.967 64.4605 433.65 8.56372 451.232L3.5874 452.967C8.1008 457.478 12.9614 461.758 18.0534 465.922C27.3329 473.706 37.1562 480.819 47.4484 487.205C48.4492 485.799 49.6148 484.518 50.9203 483.388C54.3921 480.612 58.674 479.34 63.0717 478.415C74.7603 476.217 86.9117 477.373 98.4846 474.366C103.345 473.094 109.016 469.508 107.859 464.534C106.701 459.56 102.882 458.75 102.535 455.165C102.188 451.579 105.544 448.803 108.784 447.299Z" fill="#37474F"/>
<path d="M546.584 452.967C542.071 457.478 537.21 461.758 532.118 465.922C500.872 492.295 460.367 511.959 415.464 524.914L347.416 414.564C414.423 419.654 480.156 431.915 541.492 451.232L546.584 452.967Z" fill="#455A64"/>
<path d="M441.387 447.299C421.482 437.698 395.212 445.68 377.853 432.146C372.529 427.982 368.71 422.198 365.354 416.184C426.111 421.967 485.711 433.65 541.492 451.232L546.584 452.967C542.071 457.478 537.21 461.758 532.118 465.922C522.778 473.68 512.918 480.791 502.608 487.205C501.641 485.772 500.471 484.487 499.136 483.388C495.78 480.612 491.382 479.34 487.1 478.415C475.412 476.217 463.26 477.373 451.687 474.366C446.827 473.094 441.156 469.508 442.198 464.534C443.239 459.56 447.174 458.75 447.637 455.165C448.1 451.579 444.628 448.803 441.387 447.299Z" fill="#37474F"/>
<path d="M410.025 526.418L344.754 420.464C298.374 416.994 251.798 416.994 205.418 420.464L140.031 526.418C224.976 549.784 325.196 549.784 410.025 526.418Z" fill="#37474F"/>
<path d="M347.416 414.564L344.754 420.579L410.025 526.534L415.464 525.03L347.416 414.564Z" fill="#263238"/>
<path d="M202.756 414.68L205.417 420.579L140.147 526.534L134.708 525.03L202.756 414.68Z" fill="#263238"/>
<path d="M273.234 442.557H278.674L278.442 433.766H273.582L273.234 442.557Z" fill="#E0E0E0"/>
<path d="M273.813 423.703L273.697 430.18H278.326L278.095 423.703H273.813Z" fill="#E0E0E0"/>
<path d="M272.656 460.37H279.252L278.905 447.646H273.119L272.656 460.37Z" fill="#E0E0E0"/>
<path d="M280.641 500.971H271.267L270.109 537.176H281.914L280.641 500.971Z" fill="#E0E0E0"/>
<path d="M274.044 417.803V420.926H278.095V417.919L274.044 417.803Z" fill="#E0E0E0"/>
<path d="M271.729 488.131H280.178L279.599 468.004H272.424L271.729 488.131Z" fill="#E0E0E0"/>
<path d="M444.628 65.2384H336.538C336.885 64.9771 337.277 64.7811 337.695 64.66C339.098 64.3194 340.533 64.1256 341.977 64.0817C343.366 63.966 343.828 63.8503 344.06 63.619C345.257 62.4333 346.728 61.5595 348.342 61.0742C350.95 60.3191 353.719 60.3191 356.327 61.0742C357.137 58.6452 361.188 56.5631 365.585 57.2571C365.47 54.2497 370.909 50.8952 375.885 50.2012C380.862 49.5072 384.796 49.7385 387.458 51.9362C390.351 47.8878 401.693 46.7311 407.826 48.9288C411.414 50.2012 414.423 51.3579 415.927 53.6713C416.831 55.0401 417.276 56.6601 417.2 58.2981C419.63 56.7944 424.375 56.4474 427.616 57.2571C430.856 58.0668 431.319 60.1489 431.435 61.9996C433.535 61.6031 435.687 61.564 437.8 61.8839C439.883 62.3466 441.156 63.619 440.924 64.5444C442.187 64.5908 443.435 64.8247 444.628 65.2384Z" fill="#764C99"/>
<path opacity="0.8" d="M444.628 65.2384H336.538C336.885 64.9771 337.277 64.7811 337.695 64.66C339.098 64.3194 340.533 64.1256 341.977 64.0817C343.366 63.966 343.828 63.8503 344.06 63.619C345.257 62.4333 346.728 61.5595 348.342 61.0742C350.95 60.3191 353.719 60.3191 356.327 61.0742C357.137 58.6452 361.188 56.5631 365.585 57.2571C365.47 54.2497 370.909 50.8952 375.885 50.2012C380.862 49.5072 384.796 49.7385 387.458 51.9362C390.351 47.8878 401.693 46.7311 407.826 48.9288C411.414 50.2012 414.423 51.3579 415.927 53.6713C416.831 55.0401 417.276 56.6601 417.2 58.2981C419.63 56.7944 424.375 56.4474 427.616 57.2571C430.856 58.0668 431.319 60.1489 431.435 61.9996C433.535 61.6031 435.687 61.564 437.8 61.8839C439.883 62.3466 441.156 63.619 440.924 64.5444C442.187 64.5908 443.435 64.8247 444.628 65.2384Z" fill="white"/>
<path d="M438.147 65.2382H336.538C336.885 64.9769 337.277 64.7809 337.695 64.6598C339.098 64.3192 340.533 64.1254 341.977 64.0815C343.366 63.9658 343.828 63.8501 344.06 63.6188C345.257 62.4331 346.728 61.5593 348.342 61.074C350.245 61.2434 352.095 61.7942 353.781 62.6934C354.36 62.9248 354.823 63.2718 355.401 63.1561C355.853 62.9953 356.253 62.7156 356.559 62.3464C357.927 61.1005 359.62 60.2659 361.442 59.9385C363.264 59.6111 365.141 59.8042 366.858 60.4957C367.948 59.0525 369.321 57.8467 370.893 56.9517C372.465 56.0567 374.203 55.4915 376.001 55.2905C377.822 55.0889 379.665 55.2621 381.416 55.7992C383.168 56.3363 384.791 57.226 386.185 58.4136C390.273 55.6783 395.172 54.417 400.074 54.8376C404.975 55.2581 409.588 57.3354 413.15 60.727C417.2 60.1487 421.482 59.686 425.185 61.421C428.889 63.1561 427.616 63.2718 427.616 63.2718C428.845 63.128 430.084 63.0893 431.319 63.1561C433.711 63.389 436.032 64.0968 438.147 65.2382Z" fill="white"/>
<path d="M425.186 113.936C429.815 110.234 436.99 110.003 441.272 111.275C442.429 108.152 447.984 105.608 454.002 106.417C453.886 102.484 461.408 98.2046 468.236 97.2793C475.064 96.3539 480.504 96.7009 484.207 99.5927C488.142 94.3875 503.881 92.9994 512.329 95.6599C517.19 97.2793 521.356 98.8986 523.323 101.906C524.654 103.573 525.314 105.677 525.175 107.805C528.415 105.839 535.012 105.261 539.525 106.417C544.038 107.574 544.617 110.119 544.849 112.432C547.719 111.917 550.658 111.917 553.528 112.432C554.809 112.577 556.018 113.101 557 113.936H425.186Z" fill="#764C99"/>
<path opacity="0.8" d="M425.186 113.936C429.815 110.234 436.99 110.003 441.272 111.275C442.429 108.152 447.984 105.608 454.002 106.417C453.886 102.484 461.408 98.2046 468.236 97.2793C475.064 96.3539 480.504 96.7009 484.207 99.5927C488.142 94.3875 503.881 92.9994 512.329 95.6599C517.19 97.2793 521.356 98.8986 523.323 101.906C524.654 103.573 525.314 105.677 525.175 107.805C528.415 105.839 535.012 105.261 539.525 106.417C544.038 107.574 544.617 110.119 544.849 112.432C547.719 111.917 550.658 111.917 553.528 112.432C554.809 112.577 556.018 113.101 557 113.936H425.186Z" fill="white"/>
<path d="M425.186 113.936H557C556.018 113.101 554.809 112.577 553.528 112.432C550.658 111.917 547.719 111.917 544.849 112.432C544.811 111.293 544.493 110.181 543.923 109.194C536.632 108.847 528.878 108.5 522.166 111.507C519.388 104.22 511.519 99.9399 503.881 99.5929C496.243 99.2459 488.605 102.485 482.24 106.649C479.346 102.369 473.444 100.75 468.468 101.906C463.492 103.063 459.094 106.417 455.854 110.466C453.838 109.347 451.602 108.684 449.302 108.524C447.002 108.364 444.696 108.711 442.545 109.541C441.963 109.985 441.521 110.587 441.272 111.276C436.99 110.003 429.815 110.235 425.186 113.936Z" fill="white"/>
<path d="M147.901 120.067H39.9263C40.2453 119.762 40.6485 119.561 41.0836 119.488C42.4842 119.133 43.9208 118.939 45.3655 118.91C46.7542 118.794 47.1014 118.678 47.4486 118.447C48.5845 117.242 50.0233 116.363 51.6148 115.902C54.2519 115.112 57.0572 115.072 59.7158 115.787C60.5259 113.473 64.4607 111.391 68.9741 112.085C68.7426 109.078 74.2976 105.723 79.2739 104.914C84.2502 104.104 88.0692 104.567 90.8467 106.764C93.7399 102.716 105.081 101.559 111.215 103.757C114.687 104.914 117.696 106.186 119.2 108.499C120.104 109.868 120.549 111.488 120.473 113.126C122.903 111.623 127.648 111.276 130.889 112.085C134.129 112.895 134.592 114.861 134.823 116.828C136.884 116.431 138.998 116.392 141.073 116.712C143.272 117.175 144.429 118.447 144.197 119.372C145.462 119.398 146.713 119.632 147.901 120.067Z" fill="#764C99"/>
<path opacity="0.8" d="M147.901 120.067H39.9263C40.2453 119.762 40.6485 119.561 41.0836 119.488C42.4842 119.133 43.9208 118.939 45.3655 118.91C46.7542 118.794 47.1014 118.678 47.4486 118.447C48.5845 117.242 50.0233 116.363 51.6148 115.902C54.2519 115.112 57.0572 115.072 59.7158 115.787C60.5259 113.473 64.4607 111.391 68.9741 112.085C68.7426 109.078 74.2976 105.723 79.2739 104.914C84.2502 104.104 88.0692 104.567 90.8467 106.764C93.7399 102.716 105.081 101.559 111.215 103.757C114.687 104.914 117.696 106.186 119.2 108.499C120.104 109.868 120.549 111.488 120.473 113.126C122.903 111.623 127.648 111.276 130.889 112.085C134.129 112.895 134.592 114.861 134.823 116.828C136.884 116.431 138.998 116.392 141.073 116.712C143.272 117.175 144.429 118.447 144.197 119.372C145.462 119.398 146.713 119.632 147.901 120.067Z" fill="white"/>
<path d="M141.42 120.066H39.9263C40.2453 119.762 40.6485 119.56 41.0836 119.488C42.4842 119.133 43.9208 118.939 45.3655 118.91C46.7542 118.794 47.1014 118.678 47.4486 118.447C48.5845 117.241 50.0233 116.363 51.6148 115.902C53.5522 116.086 55.4372 116.636 57.1698 117.522C57.6018 117.847 58.1341 118.01 58.6742 117.984C59.1259 117.823 59.5258 117.544 59.8315 117.175C61.1855 115.904 62.8791 115.053 64.7071 114.724C66.5352 114.396 68.4193 114.604 70.1313 115.324C71.2438 113.877 72.6374 112.67 74.2285 111.776C75.8195 110.881 77.575 110.318 79.3896 110.119C81.1934 109.898 83.0235 110.062 84.7591 110.6C86.4947 111.139 88.0962 112.039 89.458 113.242C93.5463 110.506 98.4451 109.245 103.347 109.666C108.248 110.086 112.86 112.164 116.423 115.555C120.473 114.861 124.755 114.514 128.574 116.249C132.393 117.984 131.004 118.1 131.004 118.1C132.194 117.954 133.395 117.915 134.592 117.984C136.991 118.181 139.32 118.891 141.42 120.066Z" fill="white"/>
<path d="M402.284 386.712L400.736 387.497L410.648 407.024L412.196 406.239L402.284 386.712Z" fill="#00040F"/>
<path d="M420.89 385.508L411.194 401.139L412.718 402.083L422.415 386.453L420.89 385.508Z" fill="#00040F"/>
<path d="M410.025 383.333V430.295C410.032 430.442 410.079 430.584 410.161 430.707C410.242 430.829 410.355 430.927 410.488 430.989C410.808 431.162 411.166 431.252 411.53 431.252C411.893 431.252 412.251 431.162 412.571 430.989C412.704 430.927 412.818 430.829 412.899 430.707C412.981 430.584 413.027 430.442 413.034 430.295V383.333H410.025Z" fill="#00040F"/>
<path d="M396.022 391.083C408.102 391.083 417.895 381.295 417.895 369.221C417.895 357.147 408.102 347.359 396.022 347.359C383.942 347.359 374.149 357.147 374.149 369.221C374.149 381.295 383.942 391.083 396.022 391.083Z" fill="#764C99"/>
<path opacity="0.2" d="M396.022 391.083C408.102 391.083 417.895 381.295 417.895 369.221C417.895 357.147 408.102 347.359 396.022 347.359C383.942 347.359 374.149 357.147 374.149 369.221C374.149 381.295 383.942 391.083 396.022 391.083Z" fill="#00040F"/>
<path opacity="0.1" d="M389.194 363.669C386.417 354.762 383.408 351.292 385.26 350.251C388.877 348.178 393.013 347.182 397.178 347.381C401.343 347.579 405.365 348.963 408.769 351.37C412.173 353.777 414.818 357.107 416.392 360.967C417.966 364.826 418.403 369.055 417.652 373.155C416.901 377.255 414.993 381.055 412.153 384.107C409.313 387.159 405.66 389.335 401.623 390.381C397.586 391.426 393.335 391.296 389.369 390.007C385.404 388.717 381.89 386.321 379.242 383.102C385.722 385.068 392.898 375.12 389.194 363.669Z" fill="#00040F"/>
<path d="M415.117 375.352C415.094 378.399 415.977 381.385 417.655 383.93C419.332 386.475 421.728 388.465 424.538 389.647C427.349 390.829 430.447 391.15 433.44 390.57C436.434 389.989 439.187 388.533 441.351 386.387C443.515 384.24 444.993 381.499 445.596 378.511C446.199 375.524 445.901 372.425 444.74 369.607C443.578 366.789 441.606 364.38 439.072 362.684C436.539 360.988 433.558 360.083 430.509 360.083C426.447 360.083 422.549 361.688 419.666 364.548C416.783 367.408 415.148 371.292 415.117 375.352Z" fill="#764C99"/>
<path opacity="0.2" d="M415.117 375.352C415.094 378.399 415.977 381.385 417.655 383.93C419.332 386.475 421.728 388.465 424.538 389.647C427.349 390.829 430.447 391.15 433.44 390.57C436.434 389.989 439.187 388.533 441.351 386.387C443.515 384.24 444.993 381.499 445.596 378.511C446.199 375.524 445.901 372.425 444.74 369.607C443.578 366.789 441.606 364.38 439.072 362.684C436.539 360.988 433.558 360.083 430.509 360.083C426.447 360.083 422.549 361.688 419.666 364.548C416.783 367.408 415.148 371.292 415.117 375.352Z" fill="#00040F"/>
<path opacity="0.1" d="M430.509 360.083C433.749 360.066 436.91 361.078 439.536 362.975C439.883 372.344 431.898 381.482 434.212 384.605C436.527 387.728 441.85 385.762 443.818 383.101C442.474 385.45 440.535 387.404 438.195 388.764C435.856 390.125 433.198 390.845 430.491 390.851C427.784 390.857 425.124 390.15 422.777 388.801C420.431 387.451 418.483 385.507 417.128 383.164C415.774 380.822 415.061 378.164 415.063 375.458C415.065 372.752 415.78 370.095 417.137 367.754C418.494 365.413 420.445 363.471 422.793 362.124C425.141 360.777 427.802 360.073 430.509 360.083Z" fill="#00040F"/>
<path d="M426.078 383.079C439.346 374.888 443.459 357.497 435.264 344.235C427.07 330.973 409.67 326.862 396.401 335.053C383.133 343.244 379.02 360.635 387.215 373.897C395.409 387.159 412.809 391.27 426.078 383.079Z" fill="#764C99"/>
<g opacity="0.1">
<path d="M426.078 383.079C439.346 374.888 443.459 357.497 435.264 344.235C427.07 330.973 409.67 326.862 396.401 335.053C383.133 343.244 379.02 360.635 387.215 373.897C395.409 387.159 412.809 391.27 426.078 383.079Z" fill="#00040F"/>
</g>
<path opacity="0.1" d="M383.871 365.288C384.835 369.523 386.763 373.478 389.506 376.845C392.249 380.213 395.733 382.903 399.686 384.705C403.639 386.507 407.955 387.373 412.298 387.236C416.64 387.098 420.893 385.961 424.724 383.913C428.555 381.865 431.862 378.96 434.386 375.426C436.911 371.891 438.585 367.822 439.279 363.535C439.974 359.249 439.669 354.859 438.388 350.71C437.108 346.56 434.887 342.761 431.898 339.609C429.93 337.527 429.815 337.412 431.782 339.494C432.254 341.62 432.487 343.793 432.476 345.971C432.488 351.609 430.804 357.119 427.642 361.788C424.48 366.456 419.986 370.066 414.745 372.149C409.504 374.232 403.757 374.692 398.251 373.468C392.746 372.245 387.735 369.395 383.871 365.288Z" fill="#00040F"/>
<path d="M466.741 414.033L464.986 414.922L476.102 436.822L477.857 435.932L466.741 414.033Z" fill="#00040F"/>
<path d="M487.568 412.819L476.713 430.317L478.425 431.378L489.28 413.879L487.568 412.819Z" fill="#00040F"/>
<path d="M475.296 410.168V462.914C475.294 463.08 475.351 463.241 475.457 463.368C475.563 463.496 475.711 463.581 475.875 463.608C476.217 463.837 476.62 463.959 477.032 463.959C477.444 463.959 477.847 463.837 478.189 463.608C478.266 463.595 478.339 463.566 478.404 463.523C478.469 463.48 478.525 463.425 478.569 463.36C478.612 463.295 478.641 463.222 478.656 463.146C478.67 463.069 478.669 462.99 478.652 462.914V410.168H475.296Z" fill="#00040F"/>
<path d="M466.805 417.739C479.777 413.824 487.117 400.14 483.201 387.175C479.285 374.21 465.594 366.873 452.622 370.787C439.651 374.702 432.31 388.385 436.226 401.351C440.143 414.316 453.833 421.653 466.805 417.739Z" fill="#764C99"/>
<path opacity="0.35" d="M466.805 417.739C479.777 413.824 487.117 400.14 483.201 387.175C479.285 374.21 465.594 366.873 452.622 370.787C439.651 374.702 432.31 388.385 436.226 401.351C440.143 414.316 453.833 421.653 466.805 417.739Z" fill="#00040F"/>
<path opacity="0.1" d="M452.266 387.497C449.141 377.549 445.785 373.616 447.868 372.46C451.52 370.327 455.675 369.209 459.904 369.221C464.04 369.212 468.111 370.248 471.738 372.233C475.366 374.218 478.433 377.087 480.654 380.574C482.875 384.061 484.178 388.052 484.442 392.178C484.706 396.303 483.922 400.428 482.164 404.169C480.405 407.91 477.729 411.147 474.384 413.578C471.039 416.008 467.134 417.554 463.031 418.072C458.928 418.59 454.76 418.063 450.916 416.539C447.071 415.016 443.674 412.546 441.041 409.359C448.331 411.441 456.317 400.452 452.266 387.497Z" fill="#00040F"/>
<path d="M481.314 400.683C481.314 404.092 482.325 407.424 484.22 410.258C486.115 413.093 488.808 415.302 491.959 416.606C495.11 417.911 498.577 418.252 501.922 417.587C505.266 416.922 508.339 415.281 510.75 412.87C513.162 410.46 514.804 407.389 515.47 404.046C516.135 400.702 515.794 397.237 514.488 394.088C513.183 390.938 510.973 388.247 508.137 386.353C505.302 384.459 501.968 383.448 498.557 383.448C493.984 383.448 489.598 385.264 486.364 388.496C483.131 391.728 481.314 396.112 481.314 400.683Z" fill="#764C99"/>
<path opacity="0.35" d="M481.314 400.683C481.314 404.092 482.325 407.424 484.22 410.258C486.115 413.093 488.808 415.302 491.959 416.606C495.11 417.911 498.577 418.252 501.922 417.587C505.266 416.922 508.339 415.281 510.75 412.87C513.162 410.46 514.804 407.389 515.47 404.046C516.135 400.702 515.794 397.237 514.488 394.088C513.183 390.938 510.973 388.247 508.137 386.353C505.302 384.459 501.968 383.448 498.557 383.448C493.984 383.448 489.598 385.264 486.364 388.496C483.131 391.728 481.314 396.112 481.314 400.683Z" fill="#00040F"/>
<path opacity="0.1" d="M498.558 383.448C502.169 383.455 505.689 384.587 508.626 386.687C509.089 397.213 500.178 407.508 502.724 410.978C505.27 414.448 511.288 412.25 513.487 409.359C511.965 411.969 509.784 414.134 507.161 415.636C504.538 417.139 501.567 417.926 498.544 417.918C495.521 417.911 492.553 417.109 489.938 415.594C487.323 414.078 485.153 411.902 483.644 409.284C482.135 406.666 481.342 403.698 481.343 400.676C481.344 397.655 482.14 394.687 483.651 392.07C485.161 389.453 487.334 387.279 489.95 385.766C492.566 384.253 495.535 383.453 498.558 383.448Z" fill="#00040F"/>
<path d="M484.421 412.739C501.402 408.727 511.913 391.716 507.899 374.744C503.885 357.771 486.865 347.265 469.885 351.277C452.904 355.289 442.392 372.3 446.406 389.273C450.42 406.245 467.44 416.751 484.421 412.739Z" fill="#764C99"/>
<g opacity="0.2">
<path d="M484.421 412.739C501.402 408.727 511.913 391.716 507.899 374.744C503.885 357.771 486.865 347.265 469.885 351.277C452.904 355.289 442.392 372.3 446.406 389.273C450.42 406.245 467.44 416.751 484.421 412.739Z" fill="#00040F"/>
</g>
<path opacity="0.1" d="M446.249 389.348C447.355 394.054 449.527 398.443 452.599 402.178C455.67 405.913 459.558 408.893 463.964 410.888C468.37 412.884 473.175 413.842 478.009 413.688C482.843 413.534 487.578 412.273 491.848 410.002C496.118 407.731 499.809 404.51 502.637 400.588C505.465 396.666 507.354 392.147 508.158 387.38C508.963 382.613 508.662 377.725 507.279 373.092C505.895 368.46 503.466 364.207 500.178 360.661C497.979 358.232 497.863 358.116 499.946 360.43C500.546 362.774 500.857 365.182 500.872 367.601C500.872 376.007 497.531 384.069 491.585 390.012C485.638 395.956 477.573 399.295 469.163 399.295C464.865 399.295 460.614 398.411 456.672 396.7C452.73 394.989 449.182 392.486 446.249 389.348Z" fill="#00040F"/>
<path d="M149.442 386.761L139.546 406.257L141.146 407.069L151.042 387.572L149.442 386.761Z" fill="#00040F"/>
<path d="M132.473 384.577L130.998 385.496L140.732 401.1L142.207 400.18L132.473 384.577Z" fill="#00040F"/>
<path d="M141.883 383.333V430.295C141.876 430.442 141.829 430.584 141.748 430.707C141.666 430.829 141.553 430.927 141.42 430.989C141.1 431.162 140.742 431.252 140.378 431.252C140.015 431.252 139.657 431.162 139.337 430.989C139.204 430.927 139.091 430.829 139.009 430.707C138.928 430.584 138.881 430.442 138.874 430.295V383.333H141.883Z" fill="#00040F"/>
<path d="M155.886 391.083C167.966 391.083 177.759 381.295 177.759 369.221C177.759 357.147 167.966 347.359 155.886 347.359C143.806 347.359 134.014 357.147 134.014 369.221C134.014 381.295 143.806 391.083 155.886 391.083Z" fill="#764C99"/>
<path opacity="0.2" d="M155.886 391.083C167.966 391.083 177.759 381.295 177.759 369.221C177.759 357.147 167.966 347.359 155.886 347.359C143.806 347.359 134.014 357.147 134.014 369.221C134.014 381.295 143.806 391.083 155.886 391.083Z" fill="#00040F"/>
<path opacity="0.1" d="M162.714 363.669C165.492 354.762 168.501 351.292 166.649 350.251C163.031 348.178 158.896 347.182 154.731 347.381C150.566 347.579 146.544 348.963 143.14 351.37C139.735 353.777 137.09 357.107 135.517 360.967C133.943 364.826 133.506 369.055 134.257 373.155C135.008 377.255 136.916 381.055 139.756 384.107C142.596 387.159 146.249 389.335 150.286 390.381C154.323 391.426 158.574 391.296 162.54 390.007C166.505 388.717 170.019 386.321 172.667 383.102C166.186 385.068 159.011 375.12 162.714 363.669Z" fill="#00040F"/>
<path d="M136.791 375.352C136.814 378.399 135.931 381.385 134.254 383.93C132.576 386.475 130.18 388.465 127.37 389.647C124.56 390.829 121.461 391.15 118.468 390.57C115.475 389.989 112.721 388.533 110.557 386.387C108.393 384.24 106.915 381.499 106.312 378.511C105.709 375.524 106.007 372.425 107.168 369.607C108.33 366.789 110.302 364.38 112.836 362.684C115.37 360.988 118.35 360.083 121.399 360.083C125.461 360.083 129.359 361.688 132.242 364.548C135.125 367.408 136.761 371.292 136.791 375.352Z" fill="#764C99"/>
<path opacity="0.2" d="M136.791 375.352C136.814 378.399 135.931 381.385 134.254 383.93C132.576 386.475 130.18 388.465 127.37 389.647C124.56 390.829 121.461 391.15 118.468 390.57C115.475 389.989 112.721 388.533 110.557 386.387C108.393 384.24 106.915 381.499 106.312 378.511C105.709 375.524 106.007 372.425 107.168 369.607C108.33 366.789 110.302 364.38 112.836 362.684C115.37 360.988 118.35 360.083 121.399 360.083C125.461 360.083 129.359 361.688 132.242 364.548C135.125 367.408 136.761 371.292 136.791 375.352Z" fill="#00040F"/>
<path opacity="0.1" d="M121.399 360.083C118.159 360.066 114.998 361.079 112.372 362.975C112.025 372.344 120.01 381.482 117.696 384.605C115.381 387.729 110.058 385.762 108.09 383.102C109.434 385.451 111.373 387.404 113.713 388.765C116.052 390.125 118.71 390.845 121.417 390.852C124.124 390.858 126.785 390.151 129.131 388.801C131.477 387.452 133.425 385.507 134.78 383.165C136.134 380.822 136.847 378.164 136.845 375.458C136.844 372.753 136.128 370.096 134.771 367.754C133.414 365.413 131.463 363.472 129.115 362.125C126.768 360.778 124.106 360.074 121.399 360.083Z" fill="#00040F"/>
<path d="M164.642 373.555C172.837 360.293 168.724 342.902 155.455 334.711C142.186 326.521 124.787 330.632 116.592 343.894C108.397 357.156 112.51 374.547 125.779 382.737C139.047 390.928 156.447 386.817 164.642 373.555Z" fill="#764C99"/>
<g opacity="0.1">
<path d="M164.642 373.555C172.837 360.293 168.724 342.902 155.455 334.711C142.186 326.521 124.787 330.632 116.592 343.894C108.397 357.156 112.51 374.547 125.779 382.737C139.047 390.928 156.447 386.817 164.642 373.555Z" fill="#00040F"/>
</g>
<path opacity="0.1" d="M168.038 365.288C167.074 369.523 165.145 373.478 162.402 376.845C159.659 380.213 156.175 382.903 152.222 384.705C148.269 386.507 143.953 387.373 139.611 387.236C135.268 387.098 131.015 385.961 127.184 383.913C123.353 381.865 120.047 378.96 117.522 375.426C114.998 371.891 113.323 367.822 112.629 363.535C111.935 359.249 112.24 354.859 113.52 350.71C114.8 346.56 117.021 342.761 120.01 339.609C121.978 337.527 122.094 337.412 120.126 339.494C119.654 341.62 119.421 343.793 119.432 345.971C119.42 351.609 121.105 357.119 124.267 361.788C127.429 366.456 131.922 370.066 137.163 372.149C142.404 374.232 148.151 374.692 153.657 373.468C159.163 372.245 164.173 369.395 168.038 365.288Z" fill="#00040F"/>
<path d="M85.0963 414.163L73.9961 436.032L75.7919 436.942L86.8921 415.073L85.0963 414.163Z" fill="#00040F"/>
<path d="M64.6701 412.205L62.998 413.242L73.8531 430.74L75.5252 429.704L64.6701 412.205Z" fill="#00040F"/>
<path d="M76.6124 410.168V462.914C76.6147 463.08 76.5577 463.241 76.4515 463.368C76.3454 463.496 76.1972 463.581 76.0338 463.608C75.6912 463.837 75.2885 463.959 74.8765 463.959C74.4645 463.959 74.0618 463.837 73.7192 463.608C73.6425 463.595 73.5694 463.566 73.5042 463.523C73.439 463.48 73.3831 463.425 73.3399 463.36C73.2966 463.295 73.2669 463.222 73.2526 463.146C73.2382 463.069 73.2395 462.99 73.2563 462.914V410.168H76.6124Z" fill="#00040F"/>
<path d="M116.715 400.664C120.644 387.662 113.285 373.939 100.277 370.011C87.2686 366.084 73.5381 373.44 69.6086 386.441C65.6791 399.443 73.0387 413.166 86.0467 417.094C99.0546 421.021 112.785 413.666 116.715 400.664Z" fill="#764C99"/>
<path opacity="0.35" d="M116.715 400.664C120.644 387.662 113.285 373.939 100.277 370.011C87.2686 366.084 73.5381 373.44 69.6086 386.441C65.6791 399.443 73.0387 413.166 86.0467 417.094C99.0546 421.021 112.785 413.666 116.715 400.664Z" fill="#00040F"/>
<path opacity="0.1" d="M99.6421 387.497C102.767 377.55 106.123 373.617 104.04 372.46C100.388 370.328 96.233 369.209 92.004 369.221C87.8684 369.212 83.7976 370.248 80.1699 372.233C76.5423 374.218 73.4755 377.087 71.2545 380.574C69.0336 384.061 67.7306 388.053 67.4665 392.178C67.2025 396.303 67.9861 400.428 69.7445 404.17C71.5028 407.911 74.1789 411.147 77.524 413.578C80.869 416.009 84.7746 417.555 88.8777 418.073C92.9807 418.59 97.1482 418.063 100.993 416.54C104.837 415.016 108.234 412.546 110.868 409.359C103.577 411.441 95.5916 400.452 99.6421 387.497Z" fill="#00040F"/>
<path d="M70.5944 400.684C70.5944 404.092 69.5831 407.425 67.6884 410.259C65.7937 413.093 63.1006 415.302 59.9498 416.607C56.7989 417.911 53.3318 418.253 49.9869 417.587C46.642 416.922 43.5695 415.281 41.1579 412.871C38.7464 410.46 37.1041 407.389 36.4388 404.046C35.7734 400.703 36.1149 397.237 37.42 394.088C38.7251 390.939 40.9353 388.247 43.771 386.353C46.6066 384.46 49.9405 383.449 53.3509 383.449C57.9242 383.449 62.3102 385.265 65.5439 388.497C68.7777 391.729 70.5944 396.113 70.5944 400.684Z" fill="#764C99"/>
<path opacity="0.35" d="M70.5944 400.684C70.5944 404.092 69.5831 407.425 67.6884 410.259C65.7937 413.093 63.1006 415.302 59.9498 416.607C56.7989 417.911 53.3318 418.253 49.9869 417.587C46.642 416.922 43.5695 415.281 41.1579 412.871C38.7464 410.46 37.1041 407.389 36.4388 404.046C35.7734 400.703 36.1149 397.237 37.42 394.088C38.7251 390.939 40.9353 388.247 43.771 386.353C46.6066 384.46 49.9405 383.449 53.3509 383.449C57.9242 383.449 62.3102 385.265 65.5439 388.497C68.7777 391.729 70.5944 396.113 70.5944 400.684Z" fill="#00040F"/>
<path opacity="0.1" d="M53.3508 383.449C49.7393 383.455 46.2198 384.587 43.2825 386.688C42.8195 397.214 51.7306 407.508 49.1846 410.978C46.6386 414.449 40.6207 412.251 38.4219 409.359C39.9434 411.97 42.1248 414.135 44.7475 415.637C47.3701 417.139 50.3417 417.926 53.3645 417.919C56.3873 417.911 59.355 417.109 61.9701 415.594C64.5852 414.079 66.7558 411.903 68.2644 409.285C69.7729 406.667 70.5663 403.698 70.5651 400.677C70.5639 397.656 69.7681 394.688 68.2575 392.071C66.7469 389.454 64.5746 387.28 61.9583 385.766C59.3419 384.253 56.3736 383.454 53.3508 383.449Z" fill="#00040F"/>
<path d="M105.712 389.579C109.726 372.607 99.2142 355.596 82.2334 351.583C65.2526 347.571 48.2329 358.078 44.2188 375.05C40.2047 392.022 50.7163 409.034 67.6971 413.046C84.6779 417.058 101.698 406.552 105.712 389.579Z" fill="#764C99"/>
<g opacity="0.2">
<path d="M105.712 389.579C109.726 372.607 99.2142 355.596 82.2334 351.583C65.2526 347.571 48.2329 358.078 44.2188 375.05C40.2047 392.022 50.7163 409.034 67.6971 413.046C84.6779 417.058 101.698 406.552 105.712 389.579Z" fill="#00040F"/>
</g>
<path opacity="0.1" d="M105.66 389.348C104.554 394.054 102.381 398.444 99.3098 402.179C96.2384 405.913 92.35 408.893 87.9445 410.889C83.5389 412.884 78.7338 413.842 73.8994 413.688C69.065 413.535 64.3304 412.274 60.0606 410.003C55.7907 407.731 52.0996 404.511 49.2718 400.588C46.4439 396.666 44.5548 392.148 43.75 387.381C42.9452 382.614 43.2462 377.725 44.6298 373.093C46.0135 368.461 48.4428 364.207 51.7305 360.662C53.9294 358.233 54.0451 358.117 51.962 360.43C51.3626 362.774 51.0517 365.183 51.0362 367.602C51.0362 371.764 51.8564 375.885 53.4499 379.731C55.0435 383.576 57.3792 387.07 60.3237 390.013C63.2682 392.956 66.7638 395.29 70.611 396.883C74.4582 398.476 78.5816 399.296 82.7457 399.296C87.0432 399.295 91.2948 398.412 95.2366 396.701C99.1783 394.989 102.726 392.487 105.66 389.348Z" fill="#00040F"/>
</g>
<defs>
<clipPath id="clip0_1163_3788">
<rect width="557" height="544" fill="white"/>
</clipPath>
</defs>
</svg>
