<svg xmlns="http://www.w3.org/2000/svg" width="100" height="100" viewBox="0 0 100 100" fill="none">
  <path fill-rule="evenodd" clip-rule="evenodd" d="M49.9997 91.6667C73.0115 91.6667 91.6663 73.0119 91.6663 50C91.6663 26.9882 73.0115 8.33337 49.9997 8.33337C26.9878 8.33337 8.33301 26.9882 8.33301 50C8.33301 73.0119 26.9878 91.6667 49.9997 91.6667ZM71.5401 38.2071C71.9306 37.8166 71.9306 37.1835 71.5401 36.7929C71.1496 36.4024 70.5164 36.4024 70.1259 36.7929L45.833 61.0858L34.0401 49.2929C33.6496 48.9024 33.0164 48.9024 32.6259 49.2929C32.2354 49.6835 32.2354 50.3166 32.6259 50.7071L45.1259 63.2071C45.5164 63.5977 46.1496 63.5977 46.5401 63.2071L71.5401 38.2071Z" fill="#764C99"/>
</svg>