<svg xmlns="http://www.w3.org/2000/svg" width="50" height="50" viewBox="0 0 50 50" fill="none">
  <path opacity="0.1" fill-rule="evenodd" clip-rule="evenodd" d="M25 49C38.2548 49 49 38.2548 49 25C49 11.7452 38.2548 1 25 1C11.7452 1 1 11.7452 1 25C1 38.2548 11.7452 49 25 49Z" stroke="white" stroke-width="1.5"/>
  <path d="M27.1852 18.8568H29.3909C29.5939 18.8568 29.7586 18.7016 29.7586 18.5104V16.4319C29.7586 16.2406 29.5939 16.0854 29.3909 16.0854H27.1852C24.9558 16.0854 23.1412 17.7947 23.1412 19.8961V22.321H20.5678C20.3649 22.321 20.2002 22.4762 20.2002 22.6674V24.7459C20.2002 24.9372 20.3649 25.0924 20.5678 25.0924H23.1412V32.3672C23.1412 32.5584 23.3059 32.7136 23.5089 32.7136H25.7146C25.9176 32.7136 26.0823 32.5584 26.0823 32.3672V25.0924H28.6557C28.8138 25.0924 28.9542 24.9968 29.0049 24.8554L29.7402 22.7769C29.7777 22.6716 29.7586 22.5552 29.6894 22.4644C29.6196 22.3744 29.5093 22.321 29.3909 22.321H26.0823V19.8961C26.0823 19.3231 26.5771 18.8568 27.1852 18.8568Z" fill="white"/>
</svg>