<svg xmlns="http://www.w3.org/2000/svg" width="20" height="21" viewBox="0 0 20 21" fill="none">
  <path d="M6.32652 2.55054H13.0465C15.6065 2.55054 17.6865 4.63054 17.6865 7.19054V13.9105C17.6865 15.1411 17.1977 16.3213 16.3275 17.1915C15.4573 18.0617 14.2771 18.5505 13.0465 18.5505H6.32652C3.76652 18.5505 1.68652 16.4705 1.68652 13.9105V7.19054C1.68652 5.95993 2.17538 4.77973 3.04555 3.90956C3.91572 3.03939 5.09592 2.55054 6.32652 2.55054ZM6.16652 4.15054C5.4027 4.15054 4.67016 4.45396 4.13006 4.99407C3.58995 5.53417 3.28652 6.26671 3.28652 7.03054V14.0705C3.28652 15.6625 4.57452 16.9505 6.16652 16.9505H13.2065C13.9703 16.9505 14.7029 16.6471 15.243 16.107C15.7831 15.5669 16.0865 14.8344 16.0865 14.0705V7.03054C16.0865 5.43854 14.7985 4.15054 13.2065 4.15054H6.16652ZM13.8865 5.35054C14.1517 5.35054 14.4061 5.45589 14.5936 5.64343C14.7812 5.83097 14.8865 6.08532 14.8865 6.35054C14.8865 6.61575 14.7812 6.87011 14.5936 7.05764C14.4061 7.24518 14.1517 7.35054 13.8865 7.35054C13.6213 7.35054 13.367 7.24518 13.1794 7.05764C12.9919 6.87011 12.8865 6.61575 12.8865 6.35054C12.8865 6.08532 12.9919 5.83097 13.1794 5.64343C13.367 5.45589 13.6213 5.35054 13.8865 5.35054ZM9.68652 6.55054C10.7474 6.55054 11.7648 6.97196 12.515 7.72211C13.2651 8.47226 13.6865 9.48967 13.6865 10.5505C13.6865 11.6114 13.2651 12.6288 12.515 13.379C11.7648 14.1291 10.7474 14.5505 9.68652 14.5505C8.62566 14.5505 7.60824 14.1291 6.8581 13.379C6.10795 12.6288 5.68652 11.6114 5.68652 10.5505C5.68652 9.48967 6.10795 8.47226 6.8581 7.72211C7.60824 6.97196 8.62566 6.55054 9.68652 6.55054ZM9.68652 8.15054C9.05 8.15054 8.43955 8.40339 7.98947 8.85348C7.53938 9.30357 7.28652 9.91402 7.28652 10.5505C7.28652 11.1871 7.53938 11.7975 7.98947 12.2476C8.43955 12.6977 9.05 12.9505 9.68652 12.9505C10.323 12.9505 10.9335 12.6977 11.3836 12.2476C11.8337 11.7975 12.0865 11.1871 12.0865 10.5505C12.0865 9.91402 11.8337 9.30357 11.3836 8.85348C10.9335 8.40339 10.323 8.15054 9.68652 8.15054Z" fill="currentColor"/>
</svg>