<svg xmlns="http://www.w3.org/2000/svg" width="50" height="50" viewBox="0 0 50 50" fill="none">
  <path opacity="0.1" fill-rule="evenodd" clip-rule="evenodd" d="M25 49C38.2548 49 49 38.2548 49 25C49 11.7452 38.2548 1 25 1C11.7452 1 1 11.7452 1 25C1 38.2548 11.7452 49 25 49Z" stroke="white" stroke-width="1.5"/>
  <path d="M19.4916 20.1546C20.6153 20.1546 21.5262 19.2437 21.5262 18.12C21.5262 16.9964 20.6153 16.0854 19.4916 16.0854C18.3679 16.0854 17.457 16.9964 17.457 18.12C17.457 19.2437 18.3679 20.1546 19.4916 20.1546Z" fill="white"/>
  <path d="M21.1871 21.5137H17.7961C17.6089 21.5137 17.457 21.6656 17.457 21.8528V32.0257C17.457 32.2129 17.6089 32.3648 17.7961 32.3648H21.1871C21.3743 32.3648 21.5262 32.2129 21.5262 32.0257V21.8528C21.5262 21.6656 21.3743 21.5137 21.1871 21.5137Z" fill="white"/>
  <path d="M31.2923 20.9502C29.843 20.4538 28.0302 20.8899 26.9431 21.6718C26.9058 21.526 26.7729 21.4175 26.6148 21.4175H23.2239C23.0367 21.4175 22.8848 21.5694 22.8848 21.7566V31.9295C22.8848 32.1167 23.0367 32.2686 23.2239 32.2686H26.6148C26.802 32.2686 26.9539 32.1167 26.9539 31.9295V24.6186C27.5019 24.1465 28.2079 23.996 28.7857 24.2415C29.3459 24.4782 29.6667 25.056 29.6667 25.8258V31.9295C29.6667 32.1167 29.8186 32.2686 30.0058 32.2686H33.3968C33.584 32.2686 33.7359 32.1167 33.7359 31.9295V25.1428C33.6972 22.3561 32.3863 21.3246 31.2923 20.9502Z" fill="white"/>
</svg>