<svg xmlns="http://www.w3.org/2000/svg" width="20" height="20" viewBox="0 0 20 20" fill="none">
  <path fill-rule="evenodd" clip-rule="evenodd" d="M5.45088 1.97424C3.62022 2.21602 2.21529 3.62095 1.97351 5.45161C1.80729 6.71015 1.66602 8.28448 1.66602 10.0001C1.66602 11.7157 1.80729 13.29 1.97351 14.5485C2.21529 16.3792 3.62022 17.7841 5.45088 18.0259C6.70942 18.1921 8.28374 18.3334 9.99935 18.3334C11.715 18.3334 13.2893 18.1921 14.5478 18.0259C16.3785 17.7841 17.7834 16.3792 18.0252 14.5485C18.1914 13.29 18.3327 11.7157 18.3327 10.0001C18.3327 8.28448 18.1914 6.71015 18.0252 5.45161C17.7834 3.62095 16.3785 2.21602 14.5478 1.97424C13.2893 1.80803 11.715 1.66675 9.99935 1.66675C8.28374 1.66675 6.70942 1.80803 5.45088 1.97424ZM13.3327 9.16675C12.8724 9.16675 12.4993 8.79365 12.4993 8.33342V7.50008H11.666C11.2058 7.50008 10.8327 7.12699 10.8327 6.66675C10.8327 6.20651 11.2058 5.83342 11.666 5.83342H12.4993V5.00008C12.4993 4.53984 12.8724 4.16675 13.3327 4.16675C13.7929 4.16675 14.166 4.53984 14.166 5.00008V5.83342H14.9993C15.4596 5.83342 15.8327 6.20651 15.8327 6.66675C15.8327 7.12699 15.4596 7.50008 14.9993 7.50008H14.166V8.33342C14.166 8.79365 13.7929 9.16675 13.3327 9.16675ZM4.99935 5.83342C4.53911 5.83342 4.16602 6.20651 4.16602 6.66675C4.16602 7.12699 4.53911 7.50008 4.99935 7.50008H8.33268C8.79292 7.50008 9.16602 7.12699 9.16602 6.66675C9.16602 6.20651 8.79292 5.83342 8.33268 5.83342H4.99935ZM11.666 10.8334C11.2058 10.8334 10.8327 11.2065 10.8327 11.6667C10.8327 12.127 11.2058 12.5001 11.666 12.5001H14.9993C15.4596 12.5001 15.8327 12.127 15.8327 11.6667C15.8327 11.2065 15.4596 10.8334 14.9993 10.8334H11.666ZM11.666 14.1667C11.2058 14.1667 10.8327 14.5398 10.8327 15.0001C10.8327 15.4603 11.2058 15.8334 11.666 15.8334H14.9993C15.4596 15.8334 15.8327 15.4603 15.8327 15.0001C15.8327 14.5398 15.4596 14.1667 14.9993 14.1667H11.666ZM6.00527 11.4942C5.67983 11.1687 5.1522 11.1687 4.82676 11.4942C4.50132 11.8196 4.50132 12.3472 4.82676 12.6727L5.4875 13.3334L4.82676 13.9942C4.50132 14.3196 4.50132 14.8472 4.82676 15.1727C5.1522 15.4981 5.67983 15.4981 6.00527 15.1727L6.66602 14.5119L7.32676 15.1727C7.6522 15.4981 8.17983 15.4981 8.50527 15.1727C8.83071 14.8472 8.83071 14.3196 8.50527 13.9942L7.84453 13.3334L8.50527 12.6727C8.83071 12.3472 8.83071 11.8196 8.50527 11.4942C8.17983 11.1687 7.6522 11.1687 7.32676 11.4942L6.66602 12.1549L6.00527 11.4942Z" fill="white"/>
</svg>