<svg xmlns="http://www.w3.org/2000/svg" width="16" height="16" viewBox="0 0 16 16" fill="none">
  <path fill-rule="evenodd" clip-rule="evenodd" d="M2 3.33341C2 1.86066 3.19391 0.666748 4.66667 0.666748H10.2288C10.936 0.666748 11.6143 0.9477 12.1144 1.4478L13.219 2.55237C13.719 3.05246 14 3.73074 14 4.43798V12.6667C14 14.1395 12.8061 15.3334 11.3333 15.3334H4.66667C3.19391 15.3334 2 14.1395 2 12.6667V3.33341ZM12.6667 5.33341V12.6667C12.6667 13.4031 12.0697 14.0001 11.3333 14.0001H4.66667C3.93029 14.0001 3.33333 13.4031 3.33333 12.6667V3.33341C3.33333 2.59704 3.93029 2.00008 4.66667 2.00008H9.33333V3.33341C9.33333 4.43798 10.2288 5.33341 11.3333 5.33341H12.6667ZM12.5927 4.00008C12.5272 3.81181 12.4198 3.6388 12.2761 3.49518L11.1716 2.39061C11.028 2.24698 10.8549 2.13951 10.6667 2.07404V3.33341C10.6667 3.7016 10.9651 4.00008 11.3333 4.00008H12.5927Z" fill="#764C99"/>
  <path d="M4.86128 8.86185C4.60093 9.1222 4.60093 9.54431 4.86128 9.80466L6.19461 11.138C6.45496 11.3983 6.87707 11.3983 7.13742 11.138C7.39777 10.8776 7.39777 10.4555 7.13742 10.1952L6.27549 9.33325L7.13742 8.47132C7.39777 8.21097 7.39777 7.78886 7.13742 7.52851C6.87707 7.26816 6.45496 7.26816 6.19461 7.52851L4.86128 8.86185Z" fill="#764C99"/>
  <path d="M9.80409 7.52851L11.1374 8.86185C11.3978 9.1222 11.3978 9.54431 11.1374 9.80466L9.80409 11.138C9.54374 11.3983 9.12163 11.3983 8.86128 11.138C8.60093 10.8776 8.60093 10.4555 8.86128 10.1952L9.72321 9.33325L8.86128 8.47132C8.60093 8.21097 8.60093 7.78886 8.86128 7.52851C9.12163 7.26816 9.54374 7.26816 9.80409 7.52851Z" fill="#764C99"/>
</svg>