<svg xmlns="http://www.w3.org/2000/svg" width="100" height="100" viewBox="0 0 100 100" fill="none">
  <mask id="path-1-inside-1_52_2425" fill="white">
    <path d="M100 50C100 61.41 96.0975 72.4769 88.9404 81.3631C81.7833 90.2494 71.8022 96.4204 60.6542 98.8517C49.5062 101.283 37.8619 99.8283 27.6547 94.729C17.4475 89.6298 9.29135 81.1929 4.54045 70.819C-0.210459 60.445 -1.27033 48.7582 1.53679 37.6989C4.34391 26.6395 10.8492 16.8729 19.9725 10.0206C29.0958 3.16834 40.2884 -0.35746 51.6919 0.0286335C63.0954 0.414727 74.0239 4.68948 82.6628 12.1432L78.9059 16.4975C71.2606 9.90115 61.5892 6.11808 51.4973 5.7764C41.4054 5.43471 31.5002 8.55497 23.4263 14.6191C15.3523 20.6833 9.59533 29.3265 7.11108 39.1138C4.62684 48.9011 5.56481 59.2436 9.76926 68.4243C13.9737 77.605 21.1917 85.0716 30.2249 89.5843C39.258 94.097 49.563 95.3844 59.4287 93.2327C69.2945 91.0811 78.1275 85.6198 84.4614 77.7557C90.7953 69.8916 94.2489 60.0977 94.2489 50H100Z"/>
  </mask>
  <path d="M100 50C100 61.41 96.0975 72.4769 88.9404 81.3631C81.7833 90.2494 71.8022 96.4204 60.6542 98.8517C49.5062 101.283 37.8619 99.8283 27.6547 94.729C17.4475 89.6298 9.29135 81.1929 4.54045 70.819C-0.210459 60.445 -1.27033 48.7582 1.53679 37.6989C4.34391 26.6395 10.8492 16.8729 19.9725 10.0206C29.0958 3.16834 40.2884 -0.35746 51.6919 0.0286335C63.0954 0.414727 74.0239 4.68948 82.6628 12.1432L78.9059 16.4975C71.2606 9.90115 61.5892 6.11808 51.4973 5.7764C41.4054 5.43471 31.5002 8.55497 23.4263 14.6191C15.3523 20.6833 9.59533 29.3265 7.11108 39.1138C4.62684 48.9011 5.56481 59.2436 9.76926 68.4243C13.9737 77.605 21.1917 85.0716 30.2249 89.5843C39.258 94.097 49.563 95.3844 59.4287 93.2327C69.2945 91.0811 78.1275 85.6198 84.4614 77.7557C90.7953 69.8916 94.2489 60.0977 94.2489 50H100Z" stroke="#764C99" stroke-width="6" mask="url(#path-1-inside-1_52_2425)"/>
</svg>