  <svg class="w-4 h-4 text-gray-500 dark:text-gray-400" aria-hidden="true" xmlns="http://www.w3.org/2000/svg" fill="none" viewBox="0 0 20 20">
                                        <path fill-rule="evenodd" clip-rule="evenodd" d="M9.93775 10.8798C9.03462 11.5819 7.89979 11.9999 6.66732 11.9999C3.7218 11.9999 1.33398 9.6121 1.33398 6.66659C1.33398 3.72107 3.7218 1.33325 6.66732 1.33325C9.61284 1.33325 12.0007 3.72107 12.0007 6.66659C12.0007 7.89906 11.5826 9.03389 10.8806 9.93701L14.4721 13.5285C14.7324 13.7889 14.7324 14.211 14.4721 14.4713C14.2117 14.7317 13.7896 14.7317 13.5292 14.4713L9.93775 10.8798ZM10.6673 6.66659C10.6673 8.87572 8.87646 10.6666 6.66732 10.6666C4.45818 10.6666 2.66732 8.87572 2.66732 6.66659C2.66732 4.45745 4.45818 2.66659 6.66732 2.66659C8.87646 2.66659 10.6673 4.45745 10.6673 6.66659Z" fill="#B3B4B7"/>
                                    </svg>