<svg xmlns="http://www.w3.org/2000/svg" width="17" height="16" viewBox="0 0 17 16" fill="none">
  <path fill-rule="evenodd" clip-rule="evenodd" d="M6.89515 2.13342C6.7903 2.22829 6.68012 2.3171 6.56515 2.39942C6.36648 2.53275 6.14315 2.62475 5.90848 2.67142C5.80648 2.69142 5.69982 2.70009 5.48715 2.71675C4.95315 2.75942 4.68582 2.78075 4.46315 2.85942C4.20855 2.94931 3.97731 3.09507 3.78638 3.28599C3.59546 3.47691 3.44971 3.70815 3.35982 3.96275C3.28115 4.18542 3.25982 4.45275 3.21715 4.98675C3.20988 5.12793 3.19474 5.26859 3.17182 5.40809C3.12515 5.64275 3.03315 5.86609 2.89982 6.06475C2.84182 6.15142 2.77248 6.23275 2.63382 6.39475C2.28648 6.80275 2.11248 7.00675 2.01048 7.22009C1.77515 7.71342 1.77515 8.28675 2.01048 8.78009C2.11248 8.99342 2.28648 9.19742 2.63382 9.60542C2.77248 9.76742 2.84182 9.84875 2.89982 9.93542C3.03315 10.1341 3.12515 10.3574 3.17182 10.5921C3.19182 10.6941 3.20048 10.8008 3.21715 11.0134C3.25982 11.5474 3.28115 11.8148 3.35982 12.0374C3.44971 12.292 3.59546 12.5233 3.78638 12.7142C3.97731 12.9051 4.20855 13.0509 4.46315 13.1408C4.68582 13.2194 4.95315 13.2408 5.48715 13.2834C5.69982 13.3001 5.80648 13.3088 5.90848 13.3288C6.14315 13.3754 6.36648 13.4681 6.56515 13.6008C6.65182 13.6588 6.73315 13.7281 6.89515 13.8668C7.30315 14.2141 7.50715 14.3881 7.72048 14.4901C8.21382 14.7254 8.78715 14.7254 9.28048 14.4901C9.49382 14.3881 9.69782 14.2141 10.1058 13.8668C10.2678 13.7281 10.3492 13.6588 10.4358 13.6008C10.6345 13.4674 10.8578 13.3754 11.0925 13.3288C11.1945 13.3088 11.3012 13.3001 11.5138 13.2834C12.0478 13.2408 12.3152 13.2194 12.5378 13.1408C12.7924 13.0509 13.0237 12.9051 13.2146 12.7142C13.4055 12.5233 13.5513 12.292 13.6412 12.0374C13.7198 11.8148 13.7412 11.5474 13.7838 11.0134C13.8005 10.8008 13.8092 10.6941 13.8292 10.5921C13.8758 10.3574 13.9685 10.1341 14.1012 9.93542C14.1592 9.84875 14.2285 9.76742 14.3672 9.60542C14.7145 9.19742 14.8885 8.99342 14.9905 8.78009C15.2258 8.28675 15.2258 7.71342 14.9905 7.22009C14.8885 7.00675 14.7145 6.80275 14.3672 6.39475C14.2723 6.2899 14.1835 6.17973 14.1012 6.06475C13.9679 5.86601 13.8755 5.64281 13.8292 5.40809C13.8062 5.26859 13.7911 5.12793 13.7838 4.98675C13.7412 4.45275 13.7198 4.18542 13.6412 3.96275C13.5513 3.70815 13.4055 3.47691 13.2146 3.28599C13.0237 3.09507 12.7924 2.94931 12.5378 2.85942C12.3152 2.78075 12.0478 2.75942 11.5138 2.71675C11.3726 2.70948 11.232 2.69435 11.0925 2.67142C10.8578 2.62508 10.6346 2.53263 10.4358 2.39942C10.321 2.31693 10.2108 2.22813 10.1058 2.13342C9.69782 1.78609 9.49382 1.61209 9.28048 1.51009C9.03694 1.39367 8.77042 1.33325 8.50048 1.33325C8.23055 1.33325 7.96403 1.39367 7.72048 1.51009C7.50715 1.61209 7.30315 1.78609 6.89515 2.13342ZM11.4158 6.57542C11.51 6.47229 11.5609 6.3368 11.5577 6.19715C11.5546 6.0575 11.4977 5.92443 11.3989 5.82566C11.3001 5.72688 11.1671 5.67 11.0274 5.66685C10.8878 5.6637 10.7523 5.71453 10.6492 5.80875L7.41582 9.04209L6.35182 7.97875C6.24869 7.88453 6.1132 7.8337 5.97355 7.83685C5.83389 7.84 5.70083 7.89688 5.60206 7.99566C5.50328 8.09443 5.4464 8.2275 5.44325 8.36715C5.4401 8.5068 5.49093 8.64229 5.58515 8.74542L7.03182 10.1921C7.13356 10.2936 7.27142 10.3506 7.41515 10.3506C7.55888 10.3506 7.69675 10.2936 7.79848 10.1921L11.4165 6.57542H11.4158Z" fill="#24AE8F"/>
</svg>
