<svg xmlns="http://www.w3.org/2000/svg" width="16" height="16" viewBox="0 0 16 16" fill="none">
  <path fill-rule="evenodd" clip-rule="evenodd" d="M12.666 3.33333H3.33268C2.5963 3.33333 1.99935 3.93029 1.99935 4.66667V11.3333C1.99935 12.0697 2.5963 12.6667 3.33268 12.6667H12.666C13.4024 12.6667 13.9993 12.0697 13.9993 11.3333V4.66667C13.9993 3.93029 13.4024 3.33333 12.666 3.33333ZM3.33268 2C1.85992 2 0.666016 3.19391 0.666016 4.66667V11.3333C0.666016 12.8061 1.85992 14 3.33268 14H12.666C14.1388 14 15.3327 12.8061 15.3327 11.3333V4.66667C15.3327 3.19391 14.1388 2 12.666 2H3.33268Z" fill="#764C99"/>
  <path fill-rule="evenodd" clip-rule="evenodd" d="M8.66602 8.00008C8.66602 6.15913 10.1584 4.66675 11.9993 4.66675H14.666C15.0342 4.66675 15.3327 4.96522 15.3327 5.33341C15.3327 5.7016 15.0342 6.00008 14.666 6.00008H11.9993C10.8948 6.00008 9.99935 6.89551 9.99935 8.00008C9.99935 9.10465 10.8948 10.0001 11.9993 10.0001H14.666C15.0342 10.0001 15.3327 10.2986 15.3327 10.6667C15.3327 11.0349 15.0342 11.3334 14.666 11.3334H11.9993C10.1584 11.3334 8.66602 9.84103 8.66602 8.00008Z" fill="#764C99"/>
  <path d="M12.6673 7.99992C12.6673 8.36811 12.3688 8.66659 12.0007 8.66659C11.6325 8.66659 11.334 8.36811 11.334 7.99992C11.334 7.63173 11.6325 7.33325 12.0007 7.33325C12.3688 7.33325 12.6673 7.63173 12.6673 7.99992Z" fill="#764C99"/>
</svg>