<svg xmlns="http://www.w3.org/2000/svg" width="16" height="16" viewBox="0 0 16 16" fill="none">
  <path d="M8 13.3334C6.76232 13.3334 5.57534 12.8417 4.70017 11.9666C3.825 11.0914 3.33333 9.90443 3.33333 8.66675C3.33333 7.42907 3.825 6.24209 4.70017 5.36692C5.57534 4.49175 6.76232 4.00008 8 4.00008C9.23768 4.00008 10.4247 4.49175 11.2998 5.36692C12.175 6.24209 12.6667 7.42907 12.6667 8.66675C12.6667 9.90443 12.175 11.0914 11.2998 11.9666C10.4247 12.8417 9.23768 13.3334 8 13.3334ZM12.6867 4.92675L13.6333 3.98008C13.3333 3.64008 13.0333 3.33341 12.6933 3.04008L11.7467 4.00008C10.7133 3.16008 9.41333 2.66675 8 2.66675C6.4087 2.66675 4.88258 3.29889 3.75736 4.42411C2.63214 5.54933 2 7.07545 2 8.66675C2 10.258 2.63214 11.7842 3.75736 12.9094C4.88258 14.0346 6.4087 14.6667 8 14.6667C11.3333 14.6667 14 11.9801 14 8.66675C14 7.25342 13.5067 5.95341 12.6867 4.92675ZM7.33333 9.33342H8.66667V5.33342H7.33333M10 0.666748H6V2.00008H10V0.666748Z" fill="#764C99"/>
</svg>